<svg width="25" height="25" viewBox="0 0 25 25" fill="none" xmlns="http://www.w3.org/2000/svg">
<g clip-path="url(#clip0_5419_14079)">
<path d="M18.7502 20.8337H4.16683V6.25033H13.5418V4.16699H4.16683C3.021 4.16699 2.0835 5.10449 2.0835 6.25033V20.8337C2.0835 21.9795 3.021 22.917 4.16683 22.917H18.7502C19.896 22.917 20.8335 21.9795 20.8335 20.8337V11.4587H18.7502V20.8337ZM10.6356 17.5316L8.59391 15.0732L5.72933 18.7503H17.1877L13.5002 13.8441L10.6356 17.5316ZM20.8335 4.16699V1.04199H18.7502V4.16699H15.6252C15.6356 4.17741 15.6252 6.25033 15.6252 6.25033H18.7502V9.36491C18.7606 9.37532 20.8335 9.36491 20.8335 9.36491V6.25033H23.9585V4.16699H20.8335Z" fill="#00B4D8"/>
</g>
<defs>
<clipPath id="clip0_5419_14079">
<rect width="25" height="25" fill="white"/>
</clipPath>
</defs>
</svg>
