<svg width="19" height="18" viewBox="0 0 19 18" fill="none" xmlns="http://www.w3.org/2000/svg">
<path d="M17.3478 4.28571H14.7291L13.2174 2.57143H8.26087V4.28571H12.4904L14.0022 6H17.3478V16.2857H4.13043V8.57143H2.47826V16.2857C2.47826 17.2286 3.22174 18 4.13043 18H17.3478C18.2565 18 19 17.2286 19 16.2857V6C19 5.05714 18.2565 4.28571 17.3478 4.28571ZM6.6087 11.1429C6.6087 13.5086 8.45913 15.4286 10.7391 15.4286C13.0191 15.4286 14.8696 13.5086 14.8696 11.1429C14.8696 8.77714 13.0191 6.85714 10.7391 6.85714C8.45913 6.85714 6.6087 8.77714 6.6087 11.1429ZM10.7391 8.57143C12.1022 8.57143 13.2174 9.72857 13.2174 11.1429C13.2174 12.5571 12.1022 13.7143 10.7391 13.7143C9.37609 13.7143 8.26087 12.5571 8.26087 11.1429C8.26087 9.72857 9.37609 8.57143 10.7391 8.57143ZM4.13043 4.28571H6.6087V2.57143H4.13043V0H2.47826V2.57143H0V4.28571H2.47826V6.85714H4.13043V4.28571Z" fill="#00B4D8"/>
</svg>
