<svg width="18" height="18" viewBox="0 0 18 18" fill="none" xmlns="http://www.w3.org/2000/svg">
<path d="M15.6665 0.666626H2.33317C1.49984 0.666626 0.666504 1.41663 0.666504 2.33329V4.84163C0.666504 5.44163 1.02484 5.95829 1.49984 6.24996V15.6666C1.49984 16.5833 2.4165 17.3333 3.1665 17.3333H14.8332C15.5832 17.3333 16.4998 16.5833 16.4998 15.6666V6.24996C16.9748 5.95829 17.3332 5.44163 17.3332 4.84163V2.33329C17.3332 1.41663 16.4998 0.666626 15.6665 0.666626ZM10.6665 10.6666H7.33317C6.87484 10.6666 6.49984 10.2916 6.49984 9.83329C6.49984 9.37496 6.87484 8.99996 7.33317 8.99996H10.6665C11.1248 8.99996 11.4998 9.37496 11.4998 9.83329C11.4998 10.2916 11.1248 10.6666 10.6665 10.6666ZM15.6665 4.83329H2.33317V2.33329H15.6665V4.83329Z" fill="white"/>
</svg>
