<svg width="42" height="42" viewBox="0 0 42 42" fill="none" xmlns="http://www.w3.org/2000/svg">
<path fill-rule="evenodd" clip-rule="evenodd" d="M11.1372 14.211C11.1372 11.3786 11.5033 10.0997 12.1289 9.43973C12.7319 8.80354 13.8909 8.422 16.5596 8.422H24.5664C27.2194 8.422 28.466 8.79422 29.0925 9.32922C29.6071 9.76864 29.9367 10.5323 29.9831 12.1837C29.1148 12.4069 28.4164 12.9586 27.8839 13.4911L26.9676 14.4074C26.9604 14.4145 26.9532 14.4216 26.9462 14.4289L21.4127 19.9623C21.1667 20.2083 20.9721 20.5137 20.8348 20.7868C20.698 21.059 20.5666 21.4016 20.5169 21.755L20.5166 21.7574L20.1647 24.2205L20.1643 24.2232C20.0501 25.0064 20.2616 25.799 20.8325 26.3676C21.4017 26.9345 22.1919 27.1432 22.968 27.0364L22.968 27.0365L22.9743 27.0355L25.4462 26.6824C25.7971 26.6323 26.1379 26.4998 26.4066 26.3648C26.6781 26.2283 26.9784 26.0376 27.2227 25.8012L27.2373 25.7869L29.8487 23.1754L30.4482 22.5759C30.9364 22.0878 30.9364 21.2963 30.4482 20.8082C29.9601 20.32 29.1686 20.32 28.6805 20.8082L28.081 21.4076L25.482 24.0066C25.4762 24.0116 25.4582 24.0267 25.4254 24.0489C25.386 24.0755 25.3374 24.1042 25.2839 24.131C25.2303 24.158 25.1804 24.1788 25.1398 24.1929C25.1071 24.2042 25.0902 24.2077 25.0888 24.2081L22.6419 24.5576L22.992 22.107L22.9923 22.1052L22.9925 22.1044C22.9934 22.1005 22.9973 22.0828 23.008 22.0514C23.022 22.0107 23.0424 21.9615 23.0686 21.9095C23.0947 21.8575 23.1221 21.8114 23.1468 21.7753C23.169 21.7429 23.1819 21.7288 23.1818 21.7287L27.4415 17.469C28.3659 18.9558 29.8233 20.0714 31.5561 20.5624C32.0251 20.6952 32.5074 20.5419 32.8166 20.2066C32.8266 20.1972 32.8364 20.1877 32.8462 20.178L33.7084 19.3157C34.3384 18.6857 34.9952 17.8236 35.1033 16.7226C35.2178 15.5561 34.6904 14.4731 33.7084 13.4911C33.3175 13.1002 32.9105 12.7813 32.4887 12.5463C32.4828 10.4907 32.1487 8.65159 30.716 7.42813C29.3408 6.25368 27.2512 5.922 24.5664 5.922H16.5596C13.8904 5.922 11.7131 6.24435 10.3145 7.71985C8.93834 9.17161 8.63721 11.4122 8.63721 14.211V28.2889C8.63721 31.0877 8.93834 33.3283 10.3145 34.78C11.7131 36.2555 13.8904 36.5779 16.5596 36.5779H24.5664C27.2356 36.5779 29.4128 36.2555 30.8115 34.78C32.1876 33.3283 32.4888 31.0877 32.4888 28.2889V25.5156C32.4888 24.8252 31.9291 24.2656 31.2388 24.2656C30.5484 24.2656 29.9888 24.8252 29.9888 25.5156V28.2889C29.9888 31.1213 29.6227 32.4002 28.9971 33.0601C28.394 33.6963 27.2351 34.0779 24.5664 34.0779H16.5596C13.8909 34.0779 12.7319 33.6963 12.1289 33.0601C11.5033 32.4002 11.1372 31.1213 11.1372 28.2889V14.211ZM31.5748 17.9138L31.9407 17.5479C32.4276 17.0611 32.5919 16.716 32.6153 16.4784C32.6322 16.3064 32.6012 15.9194 31.9407 15.2589C31.2802 14.5984 30.8932 14.5674 30.7212 14.5843C30.4836 14.6076 30.1385 14.772 29.6517 15.2589L29.2847 15.6259C29.7442 16.6365 30.5575 17.4503 31.5748 17.9138ZM17.8941 10.952C17.2037 10.952 16.6441 11.5116 16.6441 12.202C16.6441 12.8924 17.2037 13.452 17.8941 13.452H23.2319C23.9223 13.452 24.4819 12.8924 24.4819 12.202C24.4819 11.5116 23.9223 10.952 23.2319 10.952H17.8941Z" fill="url(#paint0_linear_5182_8162)"/>
<path d="M13 28.617C13 27.3525 14.4839 25.5244 15.6897 26.114C17.2973 26.9001 16.5544 29.3775 18.6266 30.5823C20.1724 31.481 23.9905 30.9754 26 28.617" stroke="url(#paint1_linear_5182_8162)" stroke-width="2.5" stroke-miterlimit="10" stroke-linecap="round" stroke-linejoin="round"/>
<defs>
<linearGradient id="paint0_linear_5182_8162" x1="21.878" y1="5.922" x2="21.878" y2="36.5779" gradientUnits="userSpaceOnUse">
<stop offset="0.133333" stop-color="#0077B6"/>
<stop offset="0.659375" stop-color="#00B4D8"/>
<stop offset="1" stop-color="#90E0EF"/>
</linearGradient>
<linearGradient id="paint1_linear_5182_8162" x1="19.5" y1="26" x2="19.5" y2="31" gradientUnits="userSpaceOnUse">
<stop offset="0.133333" stop-color="#0077B6"/>
<stop offset="0.659375" stop-color="#00B4D8"/>
<stop offset="1" stop-color="#90E0EF"/>
</linearGradient>
</defs>
</svg>
