<svg width="43" height="42" viewBox="0 0 43 42" fill="none" xmlns="http://www.w3.org/2000/svg">
<path fill-rule="evenodd" clip-rule="evenodd" d="M12.5999 8.5C11.0907 8.5 9.8335 9.74982 9.8335 11.3424C9.8335 12.0327 9.27385 12.5924 8.5835 12.5924C7.89314 12.5924 7.3335 12.0327 7.3335 11.3424C7.3335 8.41535 9.66423 6 12.5999 6H28.6655C31.6011 6 33.9319 8.41535 33.9319 11.3424V26.3754C33.9319 29.3024 31.6011 31.7178 28.6655 31.7178H27.648C26.9132 31.7178 26.2195 32.0093 25.7062 32.5376L25.7011 32.5429L25.7011 32.5429L23.4117 34.8716L23.4112 34.8721C21.8773 36.4306 19.3747 36.4306 17.8407 34.8721L17.8402 34.8716L15.5509 32.5429L15.5457 32.5376L15.5457 32.5376C15.034 32.0109 14.3276 31.7178 13.604 31.7178H12.5999C9.66423 31.7178 7.3335 29.3024 7.3335 26.3754V16.9368C7.3335 16.2464 7.89314 15.6868 8.5835 15.6868C9.27385 15.6868 9.8335 16.2464 9.8335 16.9368V26.3754C9.8335 27.968 11.0907 29.2178 12.5999 29.2178H13.604C14.9944 29.2178 16.3485 29.7779 17.336 30.7927L17.3387 30.7955L19.6225 33.1184C20.177 33.6818 21.0749 33.6818 21.6295 33.1184L23.9132 30.7955L23.9159 30.7927C24.9018 29.7795 26.242 29.2178 27.648 29.2178H28.6655C30.1746 29.2178 31.4319 27.968 31.4319 26.3754V11.3424C31.4319 9.74982 30.1746 8.5 28.6655 8.5H12.5999ZM20.6327 13.0991C19.5511 13.0991 18.6744 13.9759 18.6744 15.0574C18.6744 16.1389 19.5512 17.0157 20.6327 17.0157C21.7143 17.0157 22.5911 16.1389 22.5911 15.0574C22.5911 13.9759 21.7143 13.0991 20.6327 13.0991ZM16.1744 15.0574C16.1744 12.5951 18.1705 10.5991 20.6327 10.5991C23.0949 10.5991 25.0911 12.5951 25.0911 15.0574C25.0911 17.5196 23.095 19.5157 20.6327 19.5157C18.1705 19.5157 16.1744 17.5196 16.1744 15.0574ZM20.6327 20.3205C17.1501 20.3205 13.8748 22.6638 13.8748 26.0593C13.8748 26.7497 14.4345 27.3093 15.1248 27.3093C15.8152 27.3093 16.3749 26.7497 16.3749 26.0593C16.3749 24.4978 18.0291 22.8205 20.6327 22.8205C23.2363 22.8205 24.8906 24.4978 24.8906 26.0593C24.8906 26.7497 25.4502 27.3093 26.1406 27.3093C26.831 27.3093 27.3906 26.7497 27.3906 26.0593C27.3906 22.6638 24.1153 20.3205 20.6327 20.3205Z" fill="url(#paint0_linear_5182_8178)"/>
<defs>
<linearGradient id="paint0_linear_5182_8178" x1="20.6327" y1="6" x2="20.6327" y2="36.041" gradientUnits="userSpaceOnUse">
<stop offset="0.133333" stop-color="#0077B6"/>
<stop offset="0.659375" stop-color="#00B4D8"/>
<stop offset="1" stop-color="#90E0EF"/>
</linearGradient>
</defs>
</svg>
