<svg width="42" height="42" viewBox="0 0 42 42" fill="none" xmlns="http://www.w3.org/2000/svg">
<path fill-rule="evenodd" clip-rule="evenodd" d="M21.2337 4.54724C20.3365 4.54724 19.444 4.63918 18.5369 4.82036L18.5369 4.82029L18.5238 4.82305C13.5989 5.86167 9.68581 9.88734 8.76312 14.8618L8.7631 14.8618L8.76181 14.8689C8.21116 17.9372 8.73971 21.0005 10.3289 23.6906C10.3344 23.6999 10.34 23.7091 10.3457 23.7182C11.0863 24.9011 11.8656 25.8057 12.4508 26.485C12.675 26.7452 12.8707 26.9724 13.0248 27.1694C13.3244 27.5526 13.5253 27.8757 13.6599 28.2299C13.7929 28.58 13.8833 29.0198 13.8833 29.6508C13.8833 31.1689 14.6629 32.499 15.8334 33.2793C16.0695 35.9256 18.2926 38 21.0002 38C23.6083 38 25.7669 36.0753 26.133 33.5688C27.5882 32.85 28.584 31.3236 28.584 29.4848C28.584 28.3696 28.9448 27.7118 29.5567 26.9609C29.7132 26.7689 29.905 26.5535 30.1184 26.3137C30.7159 25.6426 31.4826 24.7813 32.1161 23.7138C33.2894 21.7389 33.9123 19.486 33.9123 17.2055C33.9123 14.0629 32.6248 10.4381 29.2941 7.5237C28.7746 7.06909 27.9849 7.12174 27.5303 7.64129C27.0757 8.16083 27.1283 8.95054 27.6479 9.40514C30.4136 11.8251 31.4123 14.7534 31.4123 17.2055C31.4123 19.0319 30.9129 20.8443 29.9668 22.4369L29.9664 22.4375C29.4624 23.2869 28.9548 23.8556 28.4107 24.4651L28.4107 24.4652C28.1558 24.7507 27.8929 25.0451 27.6188 25.3816C26.777 26.4144 26.084 27.6131 26.084 29.4848C26.084 30.2441 25.7571 30.83 25.2795 31.1723C25.1709 31.1415 25.0562 31.125 24.9377 31.125H17.1163C16.6723 30.7839 16.3833 30.2491 16.3833 29.6508C16.3833 28.7675 16.2544 28.0198 15.9969 27.3419C15.7408 26.668 15.3798 26.1226 14.9941 25.6294C14.7267 25.2874 14.4646 24.9844 14.1994 24.678L14.1994 24.678C13.6595 24.054 13.1073 23.4158 12.4733 22.4053C11.2019 20.2458 10.7768 17.7985 11.2219 15.3142C11.962 11.3318 15.1103 8.10074 19.0332 7.27062C19.7859 7.12067 20.5122 7.04724 21.2337 7.04724C21.924 7.04724 22.4837 6.4876 22.4837 5.79724C22.4837 5.10689 21.924 4.54724 21.2337 4.54724ZM18.5947 34.0121H23.4058C22.965 34.8942 22.0534 35.5 21.0002 35.5C19.9471 35.5 19.0354 34.8942 18.5947 34.0121ZM23.5205 13.0155C24.0642 13.4409 24.1601 14.2265 23.7347 14.7703L21.3779 17.7826H24.0627C24.531 17.7826 24.96 18.0443 25.1742 18.4607C25.3885 18.8771 25.352 19.3783 25.0798 19.7593L21.7985 24.3517C21.3972 24.9134 20.6165 25.0434 20.0548 24.6421C19.4931 24.2407 19.3631 23.46 19.7644 22.8983L21.6333 20.2826H18.8127C18.3347 20.2826 17.8985 20.0099 17.689 19.5802C17.4796 19.1504 17.5337 18.6388 17.8282 18.2623L21.7657 13.2297C22.1911 12.686 22.9768 12.5901 23.5205 13.0155Z" fill="url(#paint0_linear_5182_8175)"/>
<defs>
<linearGradient id="paint0_linear_5182_8175" x1="21.2315" y1="4.54724" x2="21.2315" y2="38" gradientUnits="userSpaceOnUse">
<stop offset="0.133333" stop-color="#0077B6"/>
<stop offset="0.659375" stop-color="#00B4D8"/>
<stop offset="1" stop-color="#90E0EF"/>
</linearGradient>
</defs>
</svg>
