<svg width="43" height="42" viewBox="0 0 43 42" fill="none" xmlns="http://www.w3.org/2000/svg">
<path fill-rule="evenodd" clip-rule="evenodd" d="M21.6663 4.90942C19.3689 4.90942 17.1618 5.39146 15.1753 6.27976C14.545 6.56156 14.2626 7.30091 14.5444 7.93113C14.8262 8.56135 15.5655 8.84379 16.1958 8.56199C17.86 7.81783 19.7192 7.40942 21.6663 7.40942C29.1679 7.40942 35.2568 13.4984 35.2568 21C35.2568 28.5016 29.1679 34.5906 21.6663 34.5906C14.1646 34.5906 8.07568 28.5016 8.07568 21C8.07568 17.9427 9.09406 15.1165 10.7945 12.8447C11.2082 12.292 11.0955 11.5086 10.5428 11.0949C9.99016 10.6813 9.20676 10.7939 8.79308 11.3466C6.78339 14.0316 5.57568 17.379 5.57568 21C5.57568 29.8824 12.7839 37.0906 21.6663 37.0906C30.5486 37.0906 37.7568 29.8824 37.7568 21C37.7568 12.1176 30.5486 4.90942 21.6663 4.90942ZM22.3672 14.3365C22.3672 13.6462 21.8076 13.0865 21.1172 13.0865C20.4269 13.0865 19.8672 13.6462 19.8672 14.3365V20.4211C19.8672 21.1577 20.1161 21.8895 20.4581 22.4892C20.7997 23.0882 21.3017 23.6736 21.9326 24.0481L21.9344 24.0491L26.5316 26.7926C27.1244 27.1464 27.8918 26.9526 28.2456 26.3598C28.5994 25.767 28.4056 24.9996 27.8128 24.6458L23.2122 21.9003L23.2089 21.8984C23.0393 21.7978 22.8147 21.575 22.6297 21.2507C22.4449 20.9265 22.3672 20.6195 22.3672 20.4211V14.3365Z" fill="url(#paint0_linear_5182_8168)"/>
<defs>
<linearGradient id="paint0_linear_5182_8168" x1="21.6663" y1="4.90942" x2="21.6663" y2="37.0906" gradientUnits="userSpaceOnUse">
<stop offset="0.133333" stop-color="#0077B6"/>
<stop offset="0.659375" stop-color="#00B4D8"/>
<stop offset="1" stop-color="#90E0EF"/>
</linearGradient>
</defs>
</svg>
