<svg width="27" height="30" viewBox="0 0 27 30" fill="none" xmlns="http://www.w3.org/2000/svg">
<path fill-rule="evenodd" clip-rule="evenodd" d="M7.94589 0.826904C5.50092 0.826904 3.46341 1.12411 2.15138 2.52655C0.867083 3.89934 0.596191 6.00522 0.596191 8.59015C0.596191 9.2805 1.15584 9.84015 1.84619 9.84015C2.53655 9.84015 3.09619 9.2805 3.09619 8.59015C3.09619 5.96708 3.43269 4.81633 3.97701 4.2345C4.49359 3.68232 5.50593 3.3269 7.94589 3.3269H17.7157C20.1557 3.3269 21.168 3.68232 21.6846 4.2345C22.2289 4.81633 22.5654 5.96708 22.5654 8.59015V14.0954C22.5654 14.7857 23.1251 15.3454 23.8154 15.3454C24.5058 15.3454 25.0654 14.7857 25.0654 14.0954V8.59015C25.0654 6.00522 24.7945 3.89934 23.5102 2.52655C22.1982 1.12411 20.1607 0.826904 17.7157 0.826904H7.94589ZM3.09619 13.7077C3.09619 13.0173 2.53655 12.4577 1.84619 12.4577C1.15584 12.4577 0.596191 13.0173 0.596191 13.7077V23.1415C0.596191 24.1016 0.726063 24.9707 1.0193 25.6897C1.3142 26.4128 1.81333 27.0669 2.58104 27.3976C3.35788 27.7321 4.17686 27.6357 4.89863 27.324C5.60268 27.0201 6.28111 26.4887 6.92009 25.8058L6.93043 25.7953L6.94289 25.7823C7.4744 25.2183 8.17574 25.2664 8.62461 25.867L8.62498 25.8676L9.93023 27.6122C10.3438 28.1649 11.1272 28.2778 11.6799 27.8642C12.2327 27.4507 12.3456 26.6673 11.932 26.1145L10.6271 24.3704L10.6269 24.37L10.6268 24.3699C9.24429 22.5207 6.72527 22.3837 5.13675 24.0537L5.13513 24.0553C5.12516 24.0653 5.11536 24.0755 5.10574 24.0858C4.60537 24.6229 4.19526 24.9047 3.90768 25.0288C3.76884 25.0888 3.67714 25.104 3.62837 25.1066C3.58548 25.1089 3.57115 25.102 3.57004 25.1015L3.56998 25.1015L3.56989 25.1014C3.56781 25.1006 3.54476 25.0908 3.50475 25.0451C3.46138 24.9955 3.3985 24.9033 3.33419 24.7456C3.20217 24.4219 3.09619 23.9002 3.09619 23.1415V13.7077ZM20.8431 20.1269C19.2496 20.1269 17.9577 21.4188 17.9577 23.0123C17.9577 24.6058 19.2496 25.8977 20.8431 25.8977C22.4367 25.8977 23.7285 24.6059 23.7285 23.0123C23.7285 21.4187 22.4367 20.1269 20.8431 20.1269ZM15.4577 23.0123C15.4577 20.038 17.8689 17.6269 20.8431 17.6269C23.8174 17.6269 26.2285 20.0381 26.2285 23.0123C26.2285 24.0465 25.937 25.0127 25.4316 25.833L26.6377 27.0391C27.1259 27.5273 27.1259 28.3188 26.6377 28.8069C26.1496 29.2951 25.3581 29.2951 24.87 28.8069L23.6638 27.6008C22.8435 28.1061 21.8774 28.3977 20.8431 28.3977C17.8689 28.3977 15.4577 25.9866 15.4577 23.0123ZM6.41147 8.53844C6.41147 7.84809 6.97112 7.28844 7.66147 7.28844H17.9999C18.6903 7.28844 19.2499 7.84809 19.2499 8.53844C19.2499 9.2288 18.6903 9.78844 17.9999 9.78844H7.66147C6.97112 9.78844 6.41147 9.2288 6.41147 8.53844ZM8.95388 12.4577C8.26353 12.4577 7.70388 13.0173 7.70388 13.7077C7.70388 14.398 8.26353 14.9577 8.95388 14.9577H16.7077C17.3981 14.9577 17.9577 14.398 17.9577 13.7077C17.9577 13.0173 17.3981 12.4577 16.7077 12.4577H8.95388Z" fill="url(#paint0_linear_5338_7511)"/>
<defs>
<linearGradient id="paint0_linear_5338_7511" x1="13.8" y1="0.826904" x2="13.8" y2="29.173" gradientUnits="userSpaceOnUse">
<stop offset="0.133333" stop-color="#0077B6"/>
<stop offset="0.659375" stop-color="#00B4D8"/>
<stop offset="1" stop-color="#90E0EF"/>
</linearGradient>
</defs>
</svg>
