<svg width="46" height="20" viewBox="0 0 46 20" fill="none" xmlns="http://www.w3.org/2000/svg">
<rect width="46" height="20" rx="5" fill="#CAF0F8"/>
<path d="M10 2C7.23571 2 5 4.0345 5 6.55C5 9.9625 10 15 10 15C10 15 15 9.9625 15 6.55C15 4.0345 12.7643 2 10 2ZM10 8.175C9.01429 8.175 8.21429 7.447 8.21429 6.55C8.21429 5.653 9.01429 4.925 10 4.925C10.9857 4.925 11.7857 5.653 11.7857 6.55C11.7857 7.447 10.9857 8.175 10 8.175Z" fill="#0077B6"/>
<path d="M22.7285 8.85938V9.83105H18.9541V8.85938H22.7285ZM19.2568 5.89062V13H18.0312V5.89062H19.2568ZM23.6709 5.89062V13H22.4502V5.89062H23.6709ZM29.8301 10.6855H31.0508C31.0117 11.151 30.8815 11.5661 30.6602 11.9307C30.4388 12.292 30.1279 12.5768 29.7275 12.7852C29.3271 12.9935 28.8405 13.0977 28.2676 13.0977C27.8281 13.0977 27.4326 13.0195 27.0811 12.8633C26.7295 12.7038 26.4284 12.4792 26.1777 12.1895C25.9271 11.8965 25.735 11.5433 25.6016 11.1299C25.4714 10.7165 25.4062 10.2542 25.4062 9.74316V9.15234C25.4062 8.64128 25.473 8.17904 25.6064 7.76562C25.7432 7.35221 25.9385 6.99902 26.1924 6.70605C26.4463 6.40983 26.7507 6.18359 27.1055 6.02734C27.4635 5.87109 27.8656 5.79297 28.3115 5.79297C28.8779 5.79297 29.3564 5.89714 29.7471 6.10547C30.1377 6.3138 30.4404 6.60189 30.6553 6.96973C30.8734 7.33757 31.0068 7.75911 31.0557 8.23438H29.835C29.8024 7.92839 29.7308 7.66634 29.6201 7.44824C29.5127 7.23014 29.3532 7.06413 29.1416 6.9502C28.93 6.83301 28.6533 6.77441 28.3115 6.77441C28.0316 6.77441 27.7874 6.8265 27.5791 6.93066C27.3708 7.03483 27.1966 7.18783 27.0566 7.38965C26.9167 7.59147 26.8109 7.84049 26.7393 8.13672C26.6709 8.42969 26.6367 8.76497 26.6367 9.14258V9.74316C26.6367 10.1012 26.6676 10.4268 26.7295 10.7197C26.7946 11.0094 26.8923 11.2585 27.0225 11.4668C27.1559 11.6751 27.3252 11.8363 27.5303 11.9502C27.7354 12.0641 27.9811 12.1211 28.2676 12.1211C28.6159 12.1211 28.8975 12.0658 29.1123 11.9551C29.3304 11.8444 29.4948 11.6833 29.6055 11.4717C29.7194 11.2568 29.7943 10.9948 29.8301 10.6855ZM33.1621 5.89062H34.2559L36.3115 11.374L38.3623 5.89062H39.4561L36.7412 13H35.8721L33.1621 5.89062ZM32.6641 5.89062H33.7041L33.8848 10.6367V13H32.6641V5.89062ZM38.9141 5.89062H39.959V13H38.7334V10.6367L38.9141 5.89062Z" fill="#0077B6"/>
</svg>
