<svg width="43" height="42" viewBox="0 0 43 42" fill="none" xmlns="http://www.w3.org/2000/svg">
<path fill-rule="evenodd" clip-rule="evenodd" d="M14.3213 18.2743C13.6309 18.2743 13.0713 18.8339 13.0713 19.5243C13.0713 20.2146 13.6309 20.7743 14.3213 20.7743H24.6512C25.3416 20.7743 25.9012 20.2146 25.9012 19.5243C25.9012 18.8339 25.3416 18.2743 24.6512 18.2743H14.3213ZM14.3213 23.4393C13.6309 23.4393 13.0713 23.9989 13.0713 24.6893C13.0713 25.3797 13.6309 25.9393 14.3213 25.9393H20.7775C21.4678 25.9393 22.0275 25.3797 22.0275 24.6893C22.0275 23.9989 21.4678 23.4393 20.7775 23.4393H14.3213Z" fill="url(#paint0_linear_5182_8165)"/>
<path d="M9.15625 12.2934L11.3698 13.9905L15.428 9.56335" stroke="url(#paint1_linear_5182_8165)" stroke-width="2.5" stroke-linecap="round" stroke-linejoin="round"/>
<path fill-rule="evenodd" clip-rule="evenodd" d="M18.3796 6.83765C17.6892 6.83765 17.1296 7.39729 17.1296 8.08765C17.1296 8.778 17.6892 9.33765 18.3796 9.33765H26.0927C28.1263 9.45145 29.3152 9.87785 30.0494 10.6726C30.8018 11.487 31.3332 12.9651 31.3332 15.8222C31.3332 16.5125 31.8929 17.0722 32.5832 17.0722C33.2736 17.0722 33.8332 16.5125 33.8332 15.8222C33.8332 12.7653 33.2865 10.4924 31.8857 8.97615C30.4708 7.4445 28.4405 6.96087 26.1945 6.83947C26.172 6.83825 26.1495 6.83765 26.127 6.83765H18.3796ZM33.8332 21.0001C33.8332 20.3097 33.2735 19.7501 32.5832 19.7501C31.8928 19.7501 31.3332 20.3097 31.3332 21.0001V24.9151H28.7095C27.2256 24.9151 25.8831 25.2869 24.9203 26.2496C23.9576 27.2123 23.5858 28.5549 23.5858 30.0388V32.6624H23.5771H23.567H23.5568H23.5467H23.5365H23.5263H23.5161H23.5058H23.4956H23.4853H23.475H23.4647H23.4544H23.4441H23.4337H23.4234H23.413H23.4026H23.3922H23.3818H23.3713H23.3609H23.3504H23.34H23.3295H23.319H23.3085H23.298H23.2874H23.2769H23.2664H23.2558H23.2452H23.2347H23.2241H23.2135H23.2029H23.1923H23.1816H23.171H23.1604H23.1497H23.1391H23.1284H23.1178H23.1071H23.0964H23.0858H23.0751H23.0644H23.0537H23.043H23.0323H23.0216H23.0109H23.0002H22.9895H22.9787H22.968H22.9573H22.9466H22.9359H22.9251H22.9144H22.9037H22.893H22.8822H22.8715H22.8608H22.8501H22.8394H22.8286H22.8179H22.8072H22.7965H22.7858H22.7751H22.7644H22.7537H22.743H22.7323H22.7216H22.7109H22.7002H22.6896H22.6789H22.6682H22.6576H22.6469H22.6363H22.6257H22.615H22.6044H22.5938H22.5832H22.5726H22.562H22.5514H22.5409H22.5303H22.5198H22.5092H22.4987H22.4882H22.4777H22.4672H22.4567H22.4462H22.4358H22.4253H22.4149H22.4045H22.3941H22.3837H22.3733H22.3629H22.3526H22.3423H22.3319H22.3216H22.3113H22.3011H22.2908H22.2806H22.2704H22.2602H22.25H22.2398H22.2297H22.2195H22.2094H22.1993H22.1892H22.1792H22.1691H22.1591H22.1491H22.1392H22.1292H22.1193H22.1094H22.0995H22.0896H22.0798H22.0699H22.0601H22.0504H22.0406H22.0309H22.0212H22.0115H22.0018H21.9922H21.9826H21.973H21.9635H21.9539H21.9444H21.935H21.9255H21.9161H21.9067H21.8973H21.888H21.8787H21.8694H21.8602H21.8509H21.8418H21.8326H21.8235H21.8144H21.8053H21.7963H21.7872H21.7783H21.7693H21.7604H21.7515H21.7427H21.7339H21.7251H21.7164H21.7076H21.699H21.6903H21.6817H21.6731H21.6646H21.6561H21.6476H21.6392H21.6308H21.6225H21.6141H21.6059H21.5976H21.5894H21.5812H21.5731H21.565H21.557H21.549H21.541H21.5331H21.5252H21.5173H21.5095H21.5017H21.494H21.4863H21.4787H21.4711H21.4635H21.456H21.4485H21.4411H21.4337H21.4264H21.4191H21.4118H21.4046H21.3975H21.3904H21.3833H21.3763H21.3693H21.3624H21.3555H21.3486H21.3418H21.3351H21.3284H21.3218H21.3152H21.3086H21.3021H21.2957H21.2893H21.2829H21.2766H21.2704H21.2642H21.2581H21.252H21.2459H21.2399H21.234H21.2281H21.2223H21.2165H21.2108H21.2051H21.1995H21.1939H21.1884H21.183H21.1776H21.1723H21.167H21.1617H21.1566H21.1515H21.1464H21.1414H21.1365H21.1316H21.1268H21.122H21.1173H21.1126H21.108H21.1035H21.099H21.0946H21.0903H21.086H21.0818H21.0776H21.0735H21.0695H21.0655H21.0616H21.0577H21.0539H21.0502H21.0465H21.0429H21.0394H21.0359H21.0325H21.0292H21.0259H21.0227H21.0196H21.0165H21.0135H21.0105H21.0077H21.0048H21.0021H20.9994H20.9968H20.9943H20.9918H20.9894H20.9871H20.9848H20.9827H20.9805H20.9785H20.9765H20.9746H20.9728H20.971H20.9693H20.9677H20.9662H20.9647H20.9633H20.962H17.0883C13.9695 32.6624 12.5017 32.0248 11.7357 31.1461C10.9325 30.2247 10.5908 28.7062 10.5908 26.1392V17.1392C10.5908 16.4488 10.0312 15.8892 9.34082 15.8892C8.65046 15.8892 8.09082 16.4488 8.09082 17.1392V26.1392C8.09082 28.75 8.39477 31.1181 9.85122 32.7889C11.3449 34.5024 13.7509 35.1624 17.0883 35.1624H20.962H20.9633H20.9647H20.9662H20.9677H20.9693H20.971H20.9728H20.9746H20.9765H20.9785H20.9805H20.9827H20.9848H20.9871H20.9894H20.9918H20.9943H20.9968H20.9994H21.0021H21.0048H21.0077H21.0105H21.0135H21.0165H21.0196H21.0227H21.0259H21.0292H21.0325H21.0359H21.0394H21.0429H21.0465H21.0502H21.0539H21.0577H21.0616H21.0655H21.0695H21.0735H21.0776H21.0818H21.086H21.0903H21.0946H21.099H21.1035H21.108H21.1126H21.1173H21.122H21.1268H21.1316H21.1365H21.1414H21.1464H21.1515H21.1566H21.1617H21.167H21.1723H21.1776H21.183H21.1884H21.1939H21.1995H21.2051H21.2108H21.2165H21.2223H21.2281H21.234H21.2399H21.2459H21.252H21.2581H21.2642H21.2704H21.2766H21.2829H21.2893H21.2957H21.3021H21.3086H21.3152H21.3218H21.3284H21.3351H21.3418H21.3486H21.3555H21.3624H21.3693H21.3763H21.3833H21.3904H21.3975H21.4046H21.4118H21.4191H21.4264H21.4337H21.4411H21.4485H21.456H21.4635H21.4711H21.4787H21.4863H21.494H21.5017H21.5095H21.5173H21.5252H21.5331H21.541H21.549H21.557H21.565H21.5731H21.5812H21.5894H21.5976H21.6059H21.6141H21.6225H21.6308H21.6392H21.6476H21.6561H21.6646H21.6731H21.6817H21.6903H21.699H21.7076H21.7164H21.7251H21.7339H21.7427H21.7515H21.7604H21.7693H21.7783H21.7872H21.7963H21.8053H21.8144H21.8235H21.8326H21.8418H21.8509H21.8602H21.8694H21.8787H21.888H21.8973H21.9067H21.9161H21.9255H21.935H21.9444H21.9539H21.9635H21.973H21.9826H21.9922H22.0018H22.0115H22.0212H22.0309H22.0406H22.0504H22.0601H22.0699H22.0798H22.0896H22.0995H22.1094H22.1193H22.1292H22.1392H22.1491H22.1591H22.1691H22.1792H22.1892H22.1993H22.2094H22.2195H22.2297H22.2398H22.25H22.2602H22.2704H22.2806H22.2908H22.3011H22.3113H22.3216H22.3319H22.3423H22.3526H22.3629H22.3733H22.3837H22.3941H22.4045H22.4149H22.4253H22.4358H22.4462H22.4567H22.4672H22.4777H22.4882H22.4987H22.5092H22.5198H22.5303H22.5409H22.5514H22.562H22.5726H22.5832H22.5938H22.6044H22.615H22.6257H22.6363H22.6469H22.6576H22.6682H22.6789H22.6896H22.7002H22.7109H22.7216H22.7323H22.743H22.7537H22.7644H22.7751H22.7858H22.7965H22.8072H22.8179H22.8286H22.8394H22.8501H22.8608H22.8715H22.8822H22.893H22.9037H22.9144H22.9251H22.9359H22.9466H22.9573H22.968H22.9787H22.9895H23.0002H23.0109H23.0216H23.0323H23.043H23.0537H23.0644H23.0751H23.0858H23.0964H23.1071H23.1178H23.1284H23.1391H23.1497H23.1604H23.171H23.1816H23.1923H23.2029H23.2135H23.2241H23.2347H23.2452H23.2558H23.2664H23.2769H23.2874H23.298H23.3085H23.319H23.3295H23.34H23.3504H23.3609H23.3713H23.3818H23.3922H23.4026H23.413H23.4234H23.4337H23.4441H23.4544H23.4647H23.475H23.4853H23.4956H23.5058H23.5161H23.5263H23.5365H23.5467H23.5568H23.567H23.5771H23.5872H23.5973H23.6074H23.6175H23.6275H23.6375H23.6475H23.6575H23.6674H23.6774H23.6873H23.6972H23.707H23.7169H23.7267H23.7365H23.7463H23.756H23.7658H23.7755H23.7852H23.7948H23.8044H23.814H23.8236H23.8332H23.8427H23.8522H23.8617H23.8711H23.8805H23.8899H23.8993H23.9086H23.9179H23.9272H23.9365H23.9457H23.9549H23.964H23.9732H23.9823H23.9913H24.0004H24.0094H24.0184H24.0273H24.0362H24.0451H24.0539H24.0627H24.0715H24.0803H24.089H24.0977H24.1063H24.1149H24.1235H24.132H24.1405H24.149H24.1574H24.1658H24.1742H24.1825H24.1908H24.199H24.2072H24.2154H24.2235H24.2316H24.2396H24.2476H24.2556H24.2635H24.2714H24.2793H24.2871H24.2949H24.3026H24.3103H24.3179H24.3255H24.3331H24.3406H24.3481H24.3555H24.3629H24.3702H24.3775H24.3848H24.392H24.3991H24.4062H24.4133H24.4203H24.4273H24.4342H24.4411H24.4479H24.4547H24.4615H24.4682H24.4748H24.4814H24.4879H24.4944H24.5009H24.5073H24.5136H24.5199H24.5262H24.5324H24.5385H24.5446H24.5506H24.5566H24.5626H24.5684H24.5743H24.58H24.5858H24.5914H24.597H24.6026H24.6081H24.6136H24.619H24.6243H24.6296H24.6348H24.64H24.6451H24.6501H24.6551H24.6601H24.665H24.6698H24.6745H24.6793H24.6839H24.6885H24.693H24.6975H24.7019H24.7062H24.7105H24.7147H24.7189H24.723H24.7271H24.731H24.7349H24.7388H24.7426H24.7463H24.75H24.7536H24.7571H24.7606H24.764H24.7673H24.7706H24.7738H24.7769H24.78H24.783H24.786H24.7888H24.7916H24.7944H24.7971H24.7997H24.8022H24.8047H24.807H24.8094H24.8116H24.8138H24.8159H24.818H24.8184C24.8676 35.1631 24.9167 35.1609 24.9655 35.1558C25.16 35.1357 25.3413 35.071 25.499 34.9721C25.5779 34.9228 25.652 34.8641 25.7197 34.7964L33.4671 27.0489C33.5212 26.9948 33.5696 26.9366 33.612 26.8751C33.7336 26.6993 33.8113 26.4909 33.8292 26.2656C33.8323 26.2274 33.8336 26.189 33.8332 26.1505V21.0001ZM26.0858 30.0388C26.0858 28.9402 26.3596 28.3459 26.6881 28.0174C27.0166 27.6889 27.6109 27.4151 28.7095 27.4151H29.5655L26.0858 30.8947V30.0388Z" fill="url(#paint2_linear_5182_8165)"/>
<defs>
<linearGradient id="paint0_linear_5182_8165" x1="19.4863" y1="18.2743" x2="19.4863" y2="25.9393" gradientUnits="userSpaceOnUse">
<stop offset="0.133333" stop-color="#0077B6"/>
<stop offset="0.659375" stop-color="#00B4D8"/>
<stop offset="1" stop-color="#90E0EF"/>
</linearGradient>
<linearGradient id="paint1_linear_5182_8165" x1="12.2921" y1="9.56335" x2="12.2921" y2="13.9905" gradientUnits="userSpaceOnUse">
<stop offset="0.133333" stop-color="#0077B6"/>
<stop offset="0.659375" stop-color="#00B4D8"/>
<stop offset="1" stop-color="#90E0EF"/>
</linearGradient>
<linearGradient id="paint2_linear_5182_8165" x1="20.962" y1="6.83765" x2="20.962" y2="35.1625" gradientUnits="userSpaceOnUse">
<stop offset="0.133333" stop-color="#0077B6"/>
<stop offset="0.659375" stop-color="#00B4D8"/>
<stop offset="1" stop-color="#90E0EF"/>
</linearGradient>
</defs>
</svg>
