<svg width="43" height="42" viewBox="0 0 43 42" fill="none" xmlns="http://www.w3.org/2000/svg">
<path fill-rule="evenodd" clip-rule="evenodd" d="M22.6679 8.6938C22.0663 8.23623 21.2454 8.24333 20.6676 8.69077L10.6362 16.4667C10.2389 16.7816 10.0119 17.2519 10.0119 17.7234C10.0119 18.4138 9.45225 18.9734 8.76189 18.9734C8.07153 18.9734 7.51189 18.4138 7.51189 17.7234C7.51189 16.4547 8.11515 15.2706 9.0921 14.5006L9.10004 14.4943L9.10007 14.4944L19.1364 6.71451L19.1369 6.71413C20.6229 5.56345 22.6966 5.5699 24.1881 6.70906L24.1943 6.71381L24.1943 6.71383L34.2296 14.4786L34.2303 14.4792L34.2306 14.4794C35.2427 15.2613 35.8197 16.456 35.8197 17.7234V33.6461H36.0035C36.6938 33.6461 37.2535 34.2057 37.2535 34.8961C37.2535 35.5864 36.6938 36.1461 36.0035 36.1461H34.5868L34.5697 36.1462L34.5526 36.1461H8.69787C8.69375 36.1461 8.68963 36.1461 8.6855 36.1461C8.68458 36.1461 8.68367 36.1461 8.68275 36.1461H7.32812C6.63777 36.1461 6.07812 35.5864 6.07812 34.8961C6.07812 34.2057 6.63777 33.6461 7.32812 33.6461H7.44491L7.48305 23.5143C7.48565 22.824 8.0474 22.2664 8.73775 22.269C9.4281 22.2716 9.98563 22.8334 9.98304 23.5237L9.94493 33.6461H33.3197V17.7234C33.3197 17.2211 33.0942 16.7604 32.7018 16.4574L32.7008 16.4566L22.6706 8.69585L22.6679 8.6938Z" fill="url(#paint0_linear_5182_8181)"/>
<path fill-rule="evenodd" clip-rule="evenodd" d="M16.6258 17.9436C14.75 17.9436 13.3574 19.5303 13.3574 21.3348V34.896C13.3574 35.5864 13.9171 36.146 14.6074 36.146H28.0633C28.7536 36.146 29.3133 35.5864 29.3133 34.896V21.3348C29.3133 19.5303 27.9206 17.9436 26.0449 17.9436H16.6258ZM15.8574 21.3348C15.8574 20.7698 16.2679 20.4436 16.6258 20.4436H26.0449C26.4028 20.4436 26.8133 20.7698 26.8133 21.3348V33.646H15.8574V21.3348ZM20.0482 26.688C20.0482 25.9976 19.4885 25.438 18.7982 25.438C18.1078 25.438 17.5482 25.9976 17.5482 26.688V28.8294C17.5482 29.5198 18.1078 30.0794 18.7982 30.0794C19.4885 30.0794 20.0482 29.5198 20.0482 28.8294V26.688Z" fill="url(#paint1_linear_5182_8181)"/>
<defs>
<linearGradient id="paint0_linear_5182_8181" x1="21.6658" y1="5.85291" x2="21.6658" y2="36.1462" gradientUnits="userSpaceOnUse">
<stop offset="0.133333" stop-color="#0077B6"/>
<stop offset="0.659375" stop-color="#00B4D8"/>
<stop offset="1" stop-color="#90E0EF"/>
</linearGradient>
<linearGradient id="paint1_linear_5182_8181" x1="21.3353" y1="17.9436" x2="21.3353" y2="36.146" gradientUnits="userSpaceOnUse">
<stop offset="0.133333" stop-color="#0077B6"/>
<stop offset="0.659375" stop-color="#00B4D8"/>
<stop offset="1" stop-color="#90E0EF"/>
</linearGradient>
</defs>
</svg>
