<svg width="312" height="197" viewBox="0 0 312 197" fill="none" xmlns="http://www.w3.org/2000/svg">
<g clip-path="url(#clip0_6_99)">
<path d="M295.316 125.744C284.298 154.224 263.583 179.176 234.81 190.142C231.067 191.566 227.246 192.774 223.365 193.76C202.836 198.985 180.378 197.168 161.455 187.647C153.423 183.602 146.099 178.259 138.039 174.273C129.978 170.287 120.773 167.678 112 169.653C104.446 171.347 98.0727 176.202 91.6557 180.527C76.5285 190.723 58.3394 198.791 40.4266 195.289C32.1842 193.68 24.0678 189.222 20.2399 181.771C11.7793 165.297 27.7357 145.71 24.5042 127.491C22.4338 115.824 12.9866 107.092 7.11506 96.8064C-2.931 79.2047 -1.7407 55.8236 10.0387 39.3279C21.8181 22.8321 43.5733 14.0832 63.5151 17.8248C87.8327 22.3892 106.218 42.9339 129.864 50.2041C144.652 54.7467 160.708 53.3914 174.831 47.4088C197.651 37.7403 229.001 22.9119 254.681 25.3274C268.337 26.6125 281.731 32.6628 290.744 42.9944C302.138 56.0366 305.554 74.5532 303.653 91.7507C302.349 103.392 299.547 114.817 295.316 125.744Z" fill="url(#paint0_linear_6_99)"/>
<path d="M302.647 148.27C302.141 148.27 301.636 148.209 301.144 148.089C299.588 147.707 298.238 146.747 297.367 145.404C296.497 144.061 296.172 142.438 296.458 140.864C296.747 139.291 297.627 137.886 298.916 136.938C300.206 135.989 301.811 135.568 303.401 135.76C304.991 135.952 306.448 136.743 307.474 137.971C308.502 139.2 309.018 140.772 308.924 142.369C308.827 143.966 308.124 145.465 306.958 146.562C305.791 147.659 304.25 148.27 302.647 148.27ZM302.647 138.546C301.813 138.549 301.011 138.856 300.388 139.41C299.765 139.964 299.367 140.725 299.268 141.551C299.171 142.378 299.377 143.211 299.85 143.895C300.325 144.58 301.033 145.068 301.842 145.267C302.31 145.379 302.798 145.391 303.27 145.303C303.745 145.213 304.194 145.025 304.589 144.751C304.984 144.476 305.319 144.121 305.566 143.708C305.813 143.296 305.971 142.836 306.029 142.358C306.087 141.88 306.041 141.396 305.898 140.937C305.755 140.478 305.515 140.054 305.195 139.694C304.875 139.334 304.482 139.046 304.044 138.848C303.605 138.65 303.13 138.547 302.647 138.546Z" fill="#E7F6FF"/>
<path d="M296.909 154.928C297.268 153.457 296.361 151.974 294.887 151.617C293.413 151.261 291.927 152.164 291.571 153.636C291.212 155.108 292.119 156.59 293.593 156.947C295.067 157.304 296.553 156.4 296.909 154.928Z" fill="#E7F6FF"/>
<path d="M13.3793 147.673C11.7143 147.636 10.1307 146.946 8.97251 145.751C7.81428 144.557 7.17486 142.954 7.19307 141.291C7.21125 139.629 7.8856 138.04 9.0697 136.871C10.2538 135.702 11.852 135.046 13.5175 135.046C15.183 135.046 16.7813 135.702 17.9654 136.871C19.1495 138.04 19.8238 139.629 19.842 141.291C19.8602 142.954 19.2208 144.557 18.0626 145.751C16.9043 146.946 15.3208 147.636 13.6557 147.673H13.3793ZM13.3793 137.951H13.2363C12.337 137.971 11.4817 138.343 10.856 138.989C10.2304 139.634 9.88497 140.499 9.89472 141.397C9.90444 142.295 10.2686 143.153 10.9081 143.785C11.5475 144.416 12.4107 144.77 13.3103 144.77C14.2098 144.77 15.073 144.416 15.7125 143.785C16.352 143.153 16.7161 142.295 16.7258 141.397C16.7356 140.499 16.3901 139.634 15.7645 138.989C15.1388 138.343 14.2835 137.971 13.3842 137.951H13.3793Z" fill="#E7F6FF"/>
<path d="M8.87041 158.27C10.3859 158.204 11.5615 156.925 11.4962 155.412C11.4308 153.899 10.1492 152.725 8.63366 152.791C7.11812 152.856 5.94253 154.135 6.00791 155.648C6.07329 157.161 7.35487 158.335 8.87041 158.27Z" fill="#E7F6FF"/>
<path d="M171.898 45.5913C170.389 45.5934 168.929 45.0562 167.782 44.0765C166.635 43.0971 165.878 41.7401 165.646 40.2512C165.415 38.7623 165.725 37.2401 166.52 35.9596C167.316 34.6793 168.544 33.7255 169.983 33.271C171.422 32.8168 172.977 32.8915 174.365 33.4821C175.754 34.0726 176.885 35.1399 177.553 36.4908C178.222 37.8417 178.383 39.3867 178.01 40.8463C177.636 42.3062 176.751 43.584 175.515 44.449C174.455 45.1905 173.192 45.5891 171.898 45.5913ZM171.879 35.8695C170.996 35.8686 170.146 36.2079 169.508 36.8168C168.869 37.4257 168.49 38.257 168.451 39.1379C168.411 40.0186 168.713 40.8804 169.295 41.5443C169.876 42.2079 170.691 42.622 171.571 42.7002C172.451 42.7783 173.327 42.5148 174.016 41.9639C174.706 41.4134 175.156 40.6183 175.273 39.7444C175.39 38.8705 175.164 37.9855 174.644 37.2735C174.123 36.5614 173.347 36.0777 172.478 35.9228C172.28 35.8874 172.079 35.8698 171.879 35.8695Z" fill="#E7F6FF"/>
<path d="M159.003 45.2437C160.245 44.3744 160.546 42.6643 159.675 41.4245C158.804 40.1844 157.091 39.8843 155.849 40.7536C154.607 41.6232 154.306 43.3333 155.177 44.5731C156.048 45.8129 157.761 46.1133 159.003 45.2437Z" fill="#E7F6FF"/>
<path d="M311.758 78.1153C311.758 75.4541 310.698 72.9018 308.815 71.0202C306.928 69.1385 304.373 68.0814 301.707 68.0814C301.484 68.0814 301.263 68.0814 301.045 68.1032C301.059 67.8853 301.067 67.6651 301.067 67.4425C301.067 66.0163 300.761 64.6065 300.172 63.3074C299.583 62.008 298.725 60.8493 297.651 59.9076C296.577 58.9661 295.316 58.2638 293.949 57.8475C292.584 57.4313 291.144 57.3103 289.728 57.4932C288.31 57.676 286.95 58.158 285.733 58.9076C284.519 59.6568 283.476 60.6564 282.679 61.8391C281.881 63.0221 281.345 64.3611 281.105 65.7672C280.868 67.1731 280.931 68.6138 281.295 69.9933C280.08 69.1138 278.684 68.517 277.207 68.2467C275.731 67.9763 274.213 68.0395 272.766 68.4313C271.316 68.8232 269.976 69.5337 268.836 70.5107C267.699 71.488 266.798 72.707 266.192 74.0785C265.588 75.4498 265.299 76.9389 265.348 78.436C265.396 79.9333 265.779 81.4009 266.47 82.731C267.159 84.0611 268.138 85.2201 269.336 86.1231C270.533 87.0258 271.918 87.6495 273.389 87.9484C273.99 89.5379 274.984 90.9491 276.281 92.05C277.576 93.151 279.132 93.9053 280.798 94.2424C282.465 94.5796 284.194 94.4883 285.816 93.9777C287.438 93.4668 288.904 92.5532 290.078 91.3221C291.278 92.226 292.664 92.8499 294.138 93.1478C295.612 93.4455 297.132 93.4097 298.589 93.0428C300.049 92.6759 301.404 91.9874 302.56 91.0278C303.716 90.0682 304.64 88.862 305.268 87.4982C307.176 86.7763 308.817 85.4919 309.978 83.816C311.137 82.1403 311.758 80.1519 311.758 78.1153Z" fill="white"/>
<path d="M46.4121 53.9864C46.4121 51.3257 45.3534 48.7739 43.4691 46.8922C41.5847 45.0106 39.0288 43.9532 36.3636 43.9525C36.1406 43.9525 35.92 43.9525 35.7018 43.9743C35.7163 43.7565 35.7236 43.5362 35.7236 43.3136C35.7234 41.8876 35.4184 40.4779 34.8295 39.1787C34.2404 37.8794 33.3808 36.7204 32.3078 35.7789C31.2349 34.8375 29.9733 34.1352 28.607 33.7189C27.2407 33.3024 25.8012 33.1816 24.3844 33.3643C22.9677 33.5473 21.6063 34.0294 20.3909 34.7789C19.1756 35.5282 18.1341 36.5277 17.3362 37.7104C16.5382 38.8934 16.0019 40.2325 15.7631 41.6383C15.5244 43.0444 15.5885 44.4852 15.9514 45.8644C14.7367 44.9854 13.3403 44.3888 11.8645 44.1185C10.3888 43.8484 8.87116 43.9116 7.42302 44.3032C5.97487 44.695 4.63296 45.4055 3.49572 46.3826C2.35848 47.3593 1.45476 48.5781 0.850876 49.9494C0.24699 51.3206 -0.0417462 52.8093 0.00585334 54.3064C0.0534528 55.8035 0.436181 57.2708 1.12596 58.6009C1.81573 59.931 2.79504 61.0903 3.99206 61.9932C5.18908 62.8962 6.57344 63.5203 8.04355 63.8195C8.64428 65.4081 9.63902 66.8185 10.9346 67.9187C12.2302 69.0189 13.7843 69.7728 15.4513 70.1099C17.1183 70.447 18.8438 70.3563 20.4661 69.8461C22.0884 69.336 23.5546 68.4233 24.7272 67.1932C25.927 68.0973 27.3144 68.7212 28.7878 69.0189C30.2611 69.3168 31.7823 69.281 33.24 68.9141C34.6974 68.5472 36.054 67.8587 37.2097 66.8991C38.3653 65.9395 39.2906 64.7333 39.9175 63.3693C41.8259 62.6484 43.4695 61.3645 44.6295 59.6885C45.7895 58.0123 46.4114 56.0237 46.4121 53.9864Z" fill="white"/>
<path d="M231.316 196.758H86.7103V193.612H231.316C231.734 193.612 232.135 193.778 232.431 194.073C232.726 194.368 232.892 194.768 232.892 195.185C232.892 195.602 232.726 196.002 232.431 196.297C232.135 196.592 231.734 196.758 231.316 196.758Z" fill="#426572"/>
<path d="M80.2424 196.758H71.4012C70.9833 196.758 70.5825 196.592 70.287 196.297C69.9915 196.002 69.8254 195.602 69.8254 195.185C69.8254 194.768 69.9915 194.368 70.287 194.073C70.5825 193.778 70.9833 193.612 71.4012 193.612H80.2424C80.6603 193.612 81.0611 193.778 81.3566 194.073C81.6521 194.368 81.8182 194.768 81.8182 195.185C81.8182 195.602 81.6521 196.002 81.3566 196.297C81.0611 196.592 80.6603 196.758 80.2424 196.758Z" fill="#426572"/>
<path d="M65.663 196.758H62.846C62.4281 196.758 62.0274 196.592 61.7318 196.297C61.4363 196.002 61.2703 195.602 61.2703 195.185C61.2703 194.768 61.4363 194.368 61.7318 194.073C62.0274 193.778 62.4281 193.612 62.846 193.612H65.663C66.0809 193.612 66.4817 193.778 66.7772 194.073C67.0727 194.368 67.2387 194.768 67.2387 195.185C67.2387 195.602 67.0727 196.002 66.7772 196.297C66.4817 196.592 66.0809 196.758 65.663 196.758Z" fill="#426572"/>
<path d="M282.022 196.758H237.576V193.612H282.022C282.439 193.612 282.841 193.778 283.137 194.073C283.43 194.368 283.598 194.768 283.598 195.185C283.598 195.602 283.43 196.002 283.137 196.297C282.841 196.592 282.439 196.758 282.022 196.758Z" fill="#426572"/>
<path d="M54.7879 196.758H10.3394V193.612H54.7879C55.2058 193.612 55.6065 193.778 55.902 194.073C56.1976 194.368 56.3636 194.768 56.3636 195.185C56.3636 195.602 56.1976 196.002 55.902 196.297C55.6065 196.592 55.2058 196.758 54.7879 196.758Z" fill="#426572"/>
<path d="M70.5454 14.9685C69.4368 14.9685 68.3532 14.6403 67.4315 14.0255C66.5098 13.4107 65.7915 12.5368 65.3673 11.5144C64.943 10.4919 64.832 9.36688 65.0482 8.2815C65.2645 7.19611 65.7983 6.1991 66.5823 5.41657C67.366 4.63404 68.3648 4.10113 69.4519 3.88522C70.5391 3.66932 71.6662 3.78014 72.6904 4.20364C73.7144 4.62715 74.5898 5.34431 75.2056 6.26447C75.8216 7.18464 76.1503 8.26644 76.1503 9.3731C76.1483 10.8565 75.5573 12.2786 74.5064 13.3275C73.4557 14.3764 72.0313 14.9665 70.5454 14.9685ZM70.5454 6.67948C70.0123 6.67948 69.4911 6.83725 69.048 7.13287C68.6048 7.42847 68.2591 7.84863 68.055 8.34023C67.8509 8.83186 67.7976 9.37284 67.9013 9.89481C68.0051 10.4168 68.2616 10.8963 68.6383 11.2728C69.0153 11.6493 69.4953 11.9058 70.0179 12.0099C70.5408 12.114 71.0826 12.061 71.5752 11.8577C72.0679 11.6544 72.4892 11.3098 72.7857 10.8676C73.0822 10.4253 73.2407 9.90527 73.2412 9.3731C73.2405 8.65933 72.9563 7.97494 72.4511 7.46997C71.9457 6.96503 71.2603 6.68076 70.5454 6.67948Z" fill="#E7F6FF"/>
<path d="M82.463 16.1743C83.7564 16.1743 84.8049 15.1276 84.8049 13.8364C84.8049 12.5452 83.7564 11.4985 82.463 11.4985C81.1697 11.4985 80.1212 12.5452 80.1212 13.8364C80.1212 15.1276 81.1697 16.1743 82.463 16.1743Z" fill="#E7F6FF"/>
<path d="M214.861 48.6281H107.115C105.508 48.6281 104.206 49.9282 104.206 51.5322V185.773C104.206 187.377 105.508 188.677 107.115 188.677H214.861C216.467 188.677 217.77 187.377 217.77 185.773V51.5322C217.77 49.9282 216.467 48.6281 214.861 48.6281Z" fill="#EBF0F9"/>
<g opacity="0.5">
<path opacity="0.5" d="M116.429 135.872V141.008C114.941 145.735 112.601 151.26 109.53 157.359C108.267 159.779 106.912 162.332 105.464 164.955C106.453 163.29 107.404 161.625 108.325 159.987C107.253 162.017 106.119 164.123 104.931 166.267V158.281C105.05 158.058 105.169 157.835 105.287 157.613C105.168 157.823 105.045 158.034 104.931 158.244V157.949C105.466 156.942 105.985 155.954 106.49 154.984C109.825 148.363 112.308 142.414 113.762 137.433C114.655 136.937 115.547 136.412 116.429 135.872Z" fill="#BBD2E5"/>
</g>
<path d="M207.113 111.153H115.922V170.943H207.113V111.153Z" fill="#87D6FE"/>
<g opacity="0.5">
<path opacity="0.5" d="M165.399 111.155L146.628 170.942H138.114L156.885 111.155H165.399Z" fill="#37B5FF"/>
<path opacity="0.5" d="M184.133 111.155L165.36 170.942H149.639L168.41 111.155H184.133Z" fill="#37B5FF"/>
</g>
<mask id="mask0_6_99" style="mask-type:luminance" maskUnits="userSpaceOnUse" x="38" y="0" width="312" height="197">
<path d="M349.828 0H38.0606V196.973H349.828V0Z" fill="white"/>
</mask>
<g mask="url(#mask0_6_99)">
<path d="M51.4407 147.612C49.7757 147.576 48.1921 146.885 47.0339 145.691C45.8757 144.496 45.2363 142.893 45.2545 141.231C45.2727 139.568 45.947 137.98 47.1311 136.811C48.3152 135.641 49.9134 134.986 51.5789 134.986C53.2444 134.986 54.8427 135.641 56.0268 136.811C57.2109 137.98 57.8852 139.568 57.9034 141.231C57.9216 142.893 57.2822 144.496 56.124 145.691C54.9657 146.885 53.3822 147.576 51.7171 147.612H51.4407ZM51.4407 137.891H51.2977C50.3984 137.91 49.5431 138.283 48.9175 138.928C48.2918 139.573 47.9464 140.439 47.9561 141.337C47.9658 142.235 48.33 143.093 48.9695 143.724C49.609 144.356 50.4722 144.71 51.3717 144.71C52.2712 144.71 53.1344 144.356 53.7739 143.724C54.4134 143.093 54.7775 142.235 54.7872 141.337C54.797 140.439 54.4515 139.573 53.8259 138.928C53.2002 138.283 52.3449 137.91 51.4456 137.891H51.4407Z" fill="#E7F6FF"/>
<path d="M46.9316 158.209C48.4471 158.144 49.6227 156.864 49.5574 155.351C49.492 153.839 48.2104 152.665 46.6949 152.73C45.1793 152.795 44.0037 154.075 44.0691 155.588C44.1345 157.101 45.4161 158.274 46.9316 158.209Z" fill="#E7F6FF"/>
<path d="M209.96 45.5297C208.45 45.5322 206.989 44.9949 205.841 44.015C204.694 43.035 203.936 41.6776 203.704 40.1882C203.473 38.6986 203.783 37.1756 204.579 35.8946C205.375 34.6137 206.604 33.6596 208.043 33.2049C209.483 32.7504 211.038 32.8252 212.427 33.4162C213.816 34.0069 214.947 35.0747 215.616 36.4261C216.285 37.7778 216.447 39.3235 216.072 40.7838C215.698 42.2441 214.813 43.5225 213.576 44.3874C212.516 45.129 211.254 45.5278 209.96 45.5297ZM209.94 35.8177C209.058 35.817 208.209 36.156 207.571 36.7644C206.933 37.3729 206.554 38.2039 206.515 39.0839C206.475 39.9639 206.777 40.8254 207.358 41.4886C207.939 42.1517 208.754 42.5655 209.633 42.6437C210.512 42.7216 211.387 42.4583 212.076 41.908C212.765 41.3579 213.215 40.5633 213.332 39.6902C213.449 38.817 213.224 37.9324 212.703 37.2209C212.183 36.5094 211.407 36.0258 210.539 35.8709C210.341 35.8358 210.141 35.8179 209.94 35.8177Z" fill="#E7F6FF"/>
<path d="M197.066 45.1823C198.308 44.3129 198.609 42.6029 197.738 41.363C196.867 40.1232 195.154 39.8228 193.912 40.6922C192.67 41.5617 192.369 43.2718 193.24 44.5116C194.111 45.7515 195.824 46.0518 197.066 45.1823Z" fill="#E7F6FF"/>
<path d="M118.304 196.707H109.463C109.045 196.707 108.644 196.541 108.348 196.246C108.053 195.951 107.887 195.551 107.887 195.134C107.887 194.717 108.053 194.317 108.348 194.022C108.644 193.727 109.045 193.561 109.463 193.561H118.304C118.722 193.561 119.122 193.727 119.418 194.022C119.713 194.317 119.88 194.717 119.88 195.134C119.88 195.551 119.713 195.951 119.418 196.246C119.122 196.541 118.722 196.707 118.304 196.707Z" fill="#426572"/>
<path d="M103.724 196.707H100.907C100.489 196.707 100.089 196.541 99.7932 196.246C99.4977 195.951 99.3317 195.551 99.3317 195.134C99.3317 194.717 99.4977 194.317 99.7932 194.022C100.089 193.727 100.489 193.561 100.907 193.561H103.724C104.142 193.561 104.543 193.727 104.839 194.022C105.134 194.317 105.3 194.717 105.3 195.134C105.3 195.551 105.134 195.951 104.839 196.246C104.543 196.541 104.142 196.707 103.724 196.707Z" fill="#426572"/>
<g opacity="0.5">
<path opacity="0.5" d="M231.608 168.96H81.465V171.823H231.608V168.96Z" fill="white"/>
</g>
<path d="M244.687 79.4365H94.5438V135.959H244.687V79.4365Z" fill="#FDE1CE"/>
<path d="M244.418 99.3812H93.9159V115.836H244.418V99.3812Z" fill="white"/>
<path d="M244.418 89.7222H93.9159V90.9734H244.418V89.7222Z" fill="white"/>
<path d="M244.418 119.504H93.9159V120.755H244.418V119.504Z" fill="white"/>
<path d="M244.418 123.53H93.9159V124.781H244.418V123.53Z" fill="white"/>
<path d="M244.418 94.0153H93.9159V95.2665H244.418V94.0153Z" fill="white"/>
<path d="M243.79 79.6154H93.6468V82.4784H243.79V79.6154Z" fill="#EFC3A6"/>
<g opacity="0.5">
<path opacity="0.5" d="M243.79 132.74H93.6468V135.603H243.79V132.74Z" fill="white"/>
</g>
<path d="M245.739 137.142H92.6844V77.718H245.739V137.142ZM95.5959 134.238H242.83V80.6222H95.5935L95.5959 134.238Z" fill="#426572"/>
<path d="M212.607 122.724L231.758 126.134C233.804 126.497 235.712 125.105 235.712 123.249V121.291L212.607 122.724Z" fill="#EFC3A6"/>
<path d="M180.903 122.724L200.054 126.134C202.1 126.497 204.008 125.105 204.008 123.249V121.291L180.903 122.724Z" fill="#EFC3A6"/>
<path d="M196.384 91.9126H187.637C183.819 91.9126 180.723 95.0029 180.723 98.8149V116.133C180.723 119.945 183.819 123.036 187.637 123.036H196.384C200.202 123.036 203.298 119.945 203.298 116.133V98.8149C203.298 95.0029 200.202 91.9126 196.384 91.9126Z" fill="#87D6FE"/>
<path d="M227.918 91.9126H219.172C215.353 91.9126 212.258 95.0029 212.258 98.8149V116.133C212.258 119.945 215.353 123.036 219.172 123.036H227.918C231.737 123.036 234.832 119.945 234.832 116.133V98.8149C234.832 95.0029 231.737 91.9126 227.918 91.9126Z" fill="#87D6FE"/>
<path d="M203.298 95.4022V98.1757C203.298 96.7672 202.153 95.1771 200.743 95.1771L181.833 93.7468C180.423 93.7468 180.711 95.4264 180.711 96.8349V95.4022C180.711 95.0668 180.777 94.7345 180.906 94.4245C181.035 94.1144 181.224 93.833 181.462 93.596C181.7 93.3591 181.983 93.1713 182.293 93.0435C182.604 92.9157 182.937 92.8504 183.273 92.8514H200.728C201.065 92.8494 201.399 92.914 201.71 93.0413C202.022 93.1689 202.305 93.3564 202.544 93.5934C202.783 93.8306 202.973 94.1123 203.102 94.4228C203.231 94.7333 203.298 95.066 203.298 95.4022Z" fill="#307FC3"/>
<path opacity="0.5" d="M203.208 95.1357V99.4533L181.004 93.8119C181.232 93.4375 181.552 93.1282 181.934 92.9133C182.317 92.6984 182.748 92.5851 183.186 92.5849H200.641C200.977 92.5832 201.311 92.648 201.622 92.7756C201.934 92.9029 202.217 93.0907 202.455 93.3276C202.694 93.5645 202.883 93.8465 203.012 94.1568C203.142 94.467 203.208 94.7996 203.208 95.1357Z" fill="#4DA7DF"/>
<path d="M234.653 95.4025V98.176C234.653 96.7675 233.509 95.1774 232.098 95.1774L213.189 93.7471C211.778 93.7471 212.066 95.4267 212.066 96.8352V95.4025C212.066 94.7258 212.336 94.077 212.815 93.5988C213.294 93.1203 213.944 92.8517 214.621 92.8517H232.076C232.413 92.8488 232.748 92.9126 233.06 93.0395C233.373 93.1663 233.657 93.3538 233.897 93.591C234.136 93.8282 234.327 94.1101 234.456 94.4211C234.586 94.7321 234.653 95.0656 234.653 95.4025Z" fill="#307FC3"/>
<path opacity="0.5" d="M234.563 95.1363V99.4538L212.364 93.81C212.592 93.4356 212.912 93.1263 213.294 92.9114C213.677 92.6965 214.108 92.5833 214.546 92.583H232.001C232.337 92.5821 232.67 92.6474 232.981 92.7752C233.292 92.9032 233.575 93.0913 233.813 93.3284C234.051 93.5656 234.24 93.8473 234.369 94.1576C234.497 94.4678 234.563 94.8004 234.563 95.1363Z" fill="#4DA7DF"/>
<path d="M234.832 107.048H211.989V108.258H234.832V107.048Z" fill="#426572"/>
<path d="M224.33 91.6461H223.118V122.59H224.33V91.6461Z" fill="#426572"/>
<path d="M227.918 124.667H219.169C216.951 124.664 214.824 123.783 213.255 122.217C211.686 120.651 210.803 118.527 210.801 116.312V98.984C210.803 96.7691 211.686 94.6456 213.255 93.0796C214.824 91.5132 216.951 90.6323 219.169 90.6296H227.918C230.137 90.6323 232.264 91.5132 233.833 93.0796C235.402 94.6456 236.284 96.7691 236.287 98.984V116.305C236.286 118.521 235.405 120.647 233.835 122.214C232.266 123.782 230.138 124.664 227.918 124.667ZM219.169 93.5435C217.724 93.5454 216.338 94.119 215.315 95.1389C214.293 96.1585 213.716 97.5411 213.712 98.984V116.305C213.713 117.75 214.289 119.136 215.313 120.158C216.336 121.179 217.724 121.754 219.172 121.755H227.921C229.368 121.754 230.756 121.179 231.78 120.158C232.803 119.136 233.379 117.75 233.38 116.305V98.984C233.379 97.5389 232.803 96.1534 231.78 95.1316C230.756 94.1098 229.368 93.5353 227.921 93.5338L219.169 93.5435Z" fill="#426572"/>
<path d="M203.298 107.048H180.454V108.258H203.298V107.048Z" fill="#426572"/>
<path d="M192.796 91.6461H191.584V122.59H192.796V91.6461Z" fill="#426572"/>
<path d="M196.386 124.667H187.637C185.418 124.664 183.291 123.783 181.722 122.217C180.154 120.651 179.271 118.527 179.269 116.312V98.9841C179.274 96.7706 180.157 94.6498 181.726 93.0857C183.295 91.5215 185.42 90.6418 187.637 90.6394H196.386C198.603 90.6426 200.728 91.5225 202.296 93.0864C203.864 94.6506 204.747 96.7711 204.752 98.9841V116.305C204.752 118.521 203.87 120.646 202.302 122.213C200.733 123.781 198.606 124.663 196.386 124.667ZM187.637 93.5436C186.191 93.5448 184.805 94.1181 183.782 95.1377C182.758 96.1576 182.182 97.5405 182.178 98.9841V116.305C182.177 117.751 182.752 119.139 183.776 120.162C184.799 121.186 186.188 121.761 187.637 121.763H196.386C197.834 121.761 199.222 121.187 200.245 120.165C201.269 119.143 201.844 117.757 201.846 116.312V98.9841C201.844 97.5388 201.269 96.1535 200.245 95.1314C199.222 94.1097 197.834 93.5351 196.386 93.5339L187.637 93.5436Z" fill="#426572"/>
<path d="M140.052 122.724L159.203 126.134C161.249 126.497 163.157 125.105 163.157 123.249V121.291L140.052 122.724Z" fill="#EFC3A6"/>
<path d="M108.34 122.724L127.492 126.134C129.538 126.497 131.446 125.105 131.446 123.249V121.291L108.34 122.724Z" fill="#EFC3A6"/>
<path d="M123.821 91.9126H115.075C111.256 91.9126 108.161 95.0029 108.161 98.8149V116.133C108.161 119.945 111.256 123.036 115.075 123.036H123.821C127.64 123.036 130.735 119.945 130.735 116.133V98.8149C130.735 95.0029 127.64 91.9126 123.821 91.9126Z" fill="#87D6FE"/>
<path d="M155.353 91.9126H146.607C142.788 91.9126 139.693 95.0029 139.693 98.8149V116.133C139.693 119.945 142.788 123.036 146.607 123.036H155.353C159.172 123.036 162.267 119.945 162.267 116.133V98.8149C162.267 95.0029 159.172 91.9126 155.353 91.9126Z" fill="#87D6FE"/>
<path d="M130.735 95.4025V98.176C130.735 96.7675 129.591 95.1774 128.18 95.1774L109.271 93.7471C107.86 93.7471 108.149 95.4267 108.149 96.8352V95.4025C108.149 94.7258 108.418 94.077 108.897 93.5988C109.376 93.1203 110.026 92.8517 110.704 92.8517H128.158C128.496 92.8488 128.83 92.9126 129.143 93.0395C129.455 93.1663 129.74 93.3538 129.979 93.591C130.219 93.8282 130.409 94.1101 130.539 94.4211C130.669 94.7321 130.735 95.0656 130.735 95.4025Z" fill="#307FC3"/>
<path opacity="0.5" d="M130.646 95.1357V99.4533L108.442 93.8119C108.67 93.4375 108.99 93.1282 109.372 92.9133C109.754 92.6984 110.185 92.5851 110.624 92.5849H128.078C128.415 92.5832 128.748 92.648 129.06 92.7756C129.371 92.9029 129.654 93.0907 129.893 93.3276C130.131 93.5645 130.321 93.8465 130.45 94.1568C130.579 94.467 130.646 94.7996 130.646 95.1357Z" fill="#4DA7DF"/>
<path d="M162.09 95.4022V98.1757C162.09 96.7672 160.946 95.1771 159.535 95.1771L140.626 93.7468C139.215 93.7468 139.504 95.4264 139.504 96.8349V95.4022C139.504 95.067 139.57 94.7352 139.698 94.4257C139.827 94.1159 140.016 93.8347 140.253 93.5978C140.491 93.3608 140.773 93.173 141.083 93.045C141.393 92.917 141.726 92.8511 142.061 92.8514H159.516C159.853 92.849 160.187 92.9131 160.5 93.0402C160.812 93.1672 161.096 93.3545 161.335 93.5917C161.575 93.8289 161.765 94.1108 161.894 94.4216C162.024 94.7323 162.09 95.0658 162.09 95.4022Z" fill="#307FC3"/>
<path opacity="0.5" d="M162.001 95.1357V99.4533L139.797 93.8119C140.025 93.4375 140.345 93.1282 140.727 92.9133C141.109 92.6984 141.54 92.5851 141.979 92.5849H159.433C159.77 92.5832 160.104 92.648 160.415 92.7756C160.726 92.9029 161.009 93.0907 161.248 93.3276C161.487 93.5645 161.676 93.8465 161.805 94.1568C161.934 94.467 162.001 94.7996 162.001 95.1357Z" fill="#4DA7DF"/>
<path d="M162.267 107.048H139.424V108.258H162.267V107.048Z" fill="#426572"/>
<path d="M151.766 91.6461H150.553V122.59H151.766V91.6461Z" fill="#426572"/>
<path d="M155.356 124.667H146.607C144.388 124.664 142.261 123.783 140.692 122.217C139.123 120.651 138.241 118.527 138.238 116.312V98.984C138.241 96.7691 139.123 94.6456 140.692 93.0796C142.261 91.5132 144.388 90.6323 146.607 90.6296H155.356C157.575 90.6323 159.702 91.5132 161.271 93.0796C162.839 94.6456 163.722 96.7691 163.724 98.984V116.305C163.724 118.521 162.842 120.647 161.273 122.214C159.704 123.782 157.576 124.664 155.356 124.667ZM146.607 93.5435C145.161 93.5449 143.775 94.1183 142.751 95.1379C141.728 96.1577 141.151 97.5406 141.147 98.984V116.305C141.149 117.75 141.724 119.136 142.748 120.158C143.771 121.179 145.159 121.754 146.607 121.755H155.356C156.803 121.754 158.191 121.179 159.215 120.158C160.238 119.136 160.814 117.75 160.815 116.305V98.984C160.814 97.5389 160.238 96.1534 159.215 95.1316C158.191 94.1098 156.803 93.5353 155.356 93.5338L146.607 93.5435Z" fill="#426572"/>
<path d="M130.735 107.048H107.892V108.258H130.735V107.048Z" fill="#426572"/>
<path d="M120.233 91.6461H119.021V122.59H120.233V91.6461Z" fill="#426572"/>
<path d="M123.821 124.667H115.072C112.854 124.664 110.727 123.783 109.158 122.217C107.589 120.651 106.706 118.527 106.704 116.312V98.984C106.706 96.7691 107.589 94.6456 109.158 93.0796C110.727 91.5132 112.854 90.6323 115.072 90.6296H123.821C126.04 90.6323 128.167 91.5132 129.736 93.0796C131.305 94.6456 132.187 96.7691 132.19 98.984V116.305C132.189 118.521 131.308 120.647 129.738 122.214C128.169 123.782 126.041 124.664 123.821 124.667ZM115.072 93.5435C113.627 93.5454 112.241 94.119 111.218 95.1389C110.196 96.1585 109.619 97.5411 109.615 98.984V116.305C109.617 117.75 110.192 119.136 111.216 120.158C112.239 121.179 113.627 121.754 115.075 121.755H123.824C125.271 121.754 126.659 121.179 127.683 120.158C128.706 119.136 129.282 117.75 129.283 116.305V98.984C129.282 97.5389 128.706 96.1534 127.683 95.1316C126.659 94.1098 125.271 93.5353 123.824 93.5338L115.072 93.5435Z" fill="#426572"/>
<path d="M244.687 19.6079H94.5438V76.1306H244.687V19.6079Z" fill="#FDE1CE"/>
<path d="M244.418 40.356H93.9159V56.8105H244.418V40.356Z" fill="white"/>
<path d="M244.418 30.6971H93.9159V31.9484H244.418V30.6971Z" fill="white"/>
<path d="M244.418 60.4773H93.9159V61.7285H244.418V60.4773Z" fill="white"/>
<path d="M244.418 64.5017H93.9159V65.7529H244.418V64.5017Z" fill="white"/>
<path d="M244.418 34.99H93.9159V36.2412H244.418V34.99Z" fill="white"/>
<path d="M243.79 19.7847H93.6468V22.6477H243.79V19.7847Z" fill="#EFC3A6"/>
<g opacity="0.5">
<path opacity="0.5" d="M243.79 72.9098H93.6468V75.7728H243.79V72.9098Z" fill="white"/>
</g>
<path d="M245.739 77.3116H92.6844V17.8873H245.739V77.3116ZM95.5959 74.4074H242.83V20.7915H95.5935L95.5959 74.4074Z" fill="#426572"/>
<path d="M212.607 62.8924L231.758 66.3024C233.804 66.6654 235.712 65.2739 235.712 63.4176V61.4718L212.607 62.8924Z" fill="#EFC3A6"/>
<path d="M180.903 62.8924L200.054 66.3024C202.1 66.6654 204.008 65.2739 204.008 63.4176V61.4718L180.903 62.8924Z" fill="#EFC3A6"/>
<path d="M196.384 32.0839H187.637C183.819 32.0839 180.723 35.1741 180.723 38.9861V56.3047C180.723 60.1167 183.819 63.207 187.637 63.207H196.384C200.202 63.207 203.298 60.1167 203.298 56.3047V38.9861C203.298 35.1741 200.202 32.0839 196.384 32.0839Z" fill="#87D6FE"/>
<path d="M227.918 32.0839H219.172C215.353 32.0839 212.258 35.1741 212.258 38.9861V56.3047C212.258 60.1167 215.353 63.207 219.172 63.207H227.918C231.737 63.207 234.832 60.1167 234.832 56.3047V38.9861C234.832 35.1741 231.737 32.0839 227.918 32.0839Z" fill="#87D6FE"/>
<path d="M203.298 35.5759V38.3494C203.298 36.9408 202.153 35.3508 200.743 35.3508L181.833 33.9205C180.423 33.9205 180.711 35.6001 180.711 37.0086V35.5759C180.711 35.2402 180.777 34.9077 180.905 34.5974C181.034 34.2871 181.223 34.0054 181.461 33.768C181.699 33.5309 181.982 33.3431 182.293 33.215C182.604 33.087 182.937 33.0217 183.273 33.0226H200.728C201.065 33.0207 201.399 33.0855 201.711 33.2128C202.023 33.3404 202.306 33.5282 202.545 33.7656C202.784 34.0028 202.973 34.285 203.103 34.5957C203.232 34.9065 203.298 35.2395 203.298 35.5759Z" fill="#307FC3"/>
<path opacity="0.5" d="M203.208 35.3046V39.6222L181.004 33.9784C181.232 33.6042 181.552 33.2947 181.934 33.0798C182.317 32.8649 182.748 32.7519 183.186 32.7514H200.641C200.977 32.7499 201.311 32.8148 201.623 32.9423C201.934 33.0699 202.218 33.2579 202.456 33.4951C202.695 33.7325 202.884 34.0144 203.013 34.3249C203.142 34.6355 203.208 34.9685 203.208 35.3046Z" fill="#4DA7DF"/>
<path d="M234.653 35.5764V38.3499C234.653 36.9414 233.509 35.3514 232.098 35.3514L213.189 33.9211C211.778 33.9211 212.066 35.6006 212.066 37.0092V35.5764C212.066 34.9 212.336 34.2512 212.815 33.7727C213.294 33.2945 213.944 33.0256 214.621 33.0256H232.076C232.413 33.0227 232.748 33.0866 233.06 33.2137C233.373 33.3405 233.657 33.5278 233.897 33.765C234.136 34.0021 234.327 34.2843 234.456 34.5953C234.586 34.9063 234.653 35.2398 234.653 35.5764Z" fill="#307FC3"/>
<path opacity="0.5" d="M234.563 35.3046V39.6222L212.364 33.9784C212.592 33.6042 212.912 33.2947 213.294 33.0798C213.677 32.8649 214.108 32.7518 214.546 32.7514H232.001C232.337 32.7504 232.67 32.8157 232.981 32.9438C233.292 33.0715 233.575 33.2596 233.813 33.4968C234.051 33.7339 234.24 34.0159 234.369 34.3261C234.497 34.6364 234.563 34.9689 234.563 35.3046Z" fill="#4DA7DF"/>
<path d="M234.832 47.2175H211.989V48.4276H234.832V47.2175Z" fill="#426572"/>
<path d="M224.33 31.8156H223.118V62.7596H224.33V31.8156Z" fill="#426572"/>
<path d="M227.918 64.836H219.169C216.951 64.8333 214.824 63.9524 213.255 62.3861C211.686 60.82 210.803 58.6966 210.801 56.4816V39.1631C210.803 36.9481 211.686 34.8247 213.255 33.2584C214.824 31.6923 216.951 30.8111 219.169 30.8087H227.918C230.137 30.8111 232.264 31.6923 233.833 33.2584C235.402 34.8247 236.284 36.9481 236.287 39.1631V56.4841C236.284 58.6985 235.401 60.8215 233.832 62.387C232.263 63.9526 230.136 64.8333 227.918 64.836ZM219.169 33.7129C217.722 33.7141 216.334 34.2886 215.31 35.3107C214.287 36.3325 213.711 37.718 213.71 39.1631V56.4841C213.711 57.9291 214.287 59.3147 215.31 60.3365C216.334 61.3582 217.722 61.9328 219.169 61.9342H227.918C229.366 61.9328 230.754 61.3582 231.777 60.3365C232.801 59.3147 233.376 57.9291 233.378 56.4841V39.1631C233.376 37.718 232.801 36.3325 231.777 35.3107C230.754 34.2886 229.366 33.7141 227.918 33.7129H219.169Z" fill="#426572"/>
<path d="M203.298 47.2175H180.454V48.4276H203.298V47.2175Z" fill="#426572"/>
<path d="M192.796 31.8156H191.584V62.7596H192.796V31.8156Z" fill="#426572"/>
<path d="M196.386 64.836H187.637C185.418 64.8333 183.291 63.9524 181.722 62.3861C180.154 60.82 179.271 58.6966 179.269 56.4816V39.1631C179.271 36.9481 180.154 34.8247 181.722 33.2584C183.291 31.6923 185.418 30.8111 187.637 30.8087H196.386C198.605 30.8111 200.732 31.6923 202.301 33.2584C203.87 34.8247 204.752 36.9481 204.755 39.1631V56.4841C204.752 58.6985 203.869 60.8215 202.3 62.387C200.731 63.9526 198.604 64.8333 196.386 64.836ZM187.637 33.7129C186.19 33.7141 184.802 34.2886 183.778 35.3107C182.755 36.3325 182.179 37.718 182.178 39.1631V56.4841C182.18 57.9286 182.755 59.3135 183.779 60.335C184.802 61.3563 186.19 61.9304 187.637 61.9318H196.386C197.834 61.9304 199.222 61.3558 200.245 60.334C201.269 59.3122 201.844 57.9267 201.846 56.4816V39.1631C201.844 37.718 201.269 36.3325 200.245 35.3107C199.222 34.2886 197.834 33.7141 196.386 33.7129H187.637Z" fill="#426572"/>
<path d="M140.052 62.8924L159.203 66.3024C161.249 66.6654 163.157 65.2739 163.157 63.4176V61.4718L140.052 62.8924Z" fill="#EFC3A6"/>
<path d="M108.34 62.8924L127.492 66.3024C129.538 66.6654 131.446 65.2739 131.446 63.4176V61.4718L108.34 62.8924Z" fill="#EFC3A6"/>
<path d="M123.821 32.0839H115.075C111.256 32.0839 108.161 35.1741 108.161 38.9861V56.3047C108.161 60.1167 111.256 63.207 115.075 63.207H123.821C127.64 63.207 130.735 60.1167 130.735 56.3047V38.9861C130.735 35.1741 127.64 32.0839 123.821 32.0839Z" fill="#87D6FE"/>
<path d="M155.353 32.0839H146.607C142.788 32.0839 139.693 35.1741 139.693 38.9861V56.3047C139.693 60.1167 142.788 63.207 146.607 63.207H155.353C159.172 63.207 162.267 60.1167 162.267 56.3047V38.9861C162.267 35.1741 159.172 32.0839 155.353 32.0839Z" fill="#87D6FE"/>
<path d="M130.735 35.5764V38.3499C130.735 36.9414 129.591 35.3514 128.18 35.3514L109.271 33.9211C107.86 33.9211 108.149 35.6006 108.149 37.0092V35.5764C108.149 34.9 108.418 34.2512 108.897 33.7727C109.376 33.2945 110.026 33.0256 110.704 33.0256H128.158C128.496 33.0227 128.83 33.0866 129.143 33.2137C129.455 33.3405 129.74 33.5278 129.979 33.765C130.219 34.0021 130.409 34.2843 130.539 34.5953C130.669 34.9063 130.735 35.2398 130.735 35.5764Z" fill="#307FC3"/>
<path opacity="0.5" d="M130.646 35.3046V39.6222L108.442 33.9784C108.67 33.6042 108.99 33.2947 109.372 33.0798C109.754 32.8649 110.185 32.7519 110.624 32.7514H128.078C128.415 32.7499 128.749 32.8148 129.06 32.9423C129.372 33.0699 129.655 33.2579 129.894 33.4951C130.132 33.7325 130.322 34.0144 130.451 34.3249C130.58 34.6355 130.646 34.9685 130.646 35.3046Z" fill="#4DA7DF"/>
<path d="M162.09 35.5762V38.3497C162.09 36.9411 160.946 35.3511 159.535 35.3511L140.626 33.9208C139.215 33.9208 139.504 35.6004 139.504 37.0089V35.5762C139.504 35.2407 139.569 34.9084 139.698 34.5987C139.826 34.2886 140.015 34.0072 140.252 33.77C140.49 33.5328 140.772 33.3448 141.082 33.2165C141.393 33.0883 141.725 33.0224 142.061 33.0229H159.516C159.853 33.0202 160.188 33.0844 160.5 33.2117C160.813 33.3387 161.097 33.5265 161.336 33.764C161.576 34.0014 161.765 34.2836 161.895 34.5946C162.024 34.9058 162.091 35.2393 162.09 35.5762Z" fill="#307FC3"/>
<path opacity="0.5" d="M162.001 35.3046V39.6222L139.795 33.9784C140.022 33.6042 140.343 33.2947 140.725 33.0798C141.107 32.8649 141.538 32.7519 141.976 32.7514H159.431C159.768 32.7494 160.102 32.8141 160.414 32.9416C160.726 33.0691 161.009 33.257 161.248 33.4944C161.487 33.7315 161.676 34.0137 161.806 34.3245C161.935 34.6352 162.001 34.9682 162.001 35.3046Z" fill="#4DA7DF"/>
<path d="M162.267 47.2175H139.424V48.4276H162.267V47.2175Z" fill="#426572"/>
<path d="M151.766 31.8156H150.553V62.7596H151.766V31.8156Z" fill="#426572"/>
<path d="M155.356 64.836H146.607C144.388 64.8333 142.261 63.9524 140.692 62.3861C139.123 60.82 138.241 58.6966 138.238 56.4816V39.1631C138.241 36.9481 139.123 34.8247 140.692 33.2584C142.261 31.6923 144.388 30.8111 146.607 30.8087H155.356C157.575 30.8111 159.702 31.6923 161.271 33.2584C162.839 34.8247 163.722 36.9481 163.724 39.1631V56.4841C163.721 58.6985 162.838 60.8215 161.27 62.387C159.701 63.9526 157.574 64.8333 155.356 64.836ZM146.607 33.7129C145.159 33.7141 143.771 34.2886 142.748 35.3107C141.724 36.3325 141.149 37.718 141.147 39.1631V56.4841C141.149 57.9291 141.724 59.3147 142.748 60.3365C143.771 61.3582 145.159 61.9328 146.607 61.9342H155.356C156.803 61.9328 158.191 61.3582 159.215 60.3365C160.238 59.3147 160.814 57.9291 160.815 56.4841V39.1631C160.814 37.718 160.238 36.3325 159.215 35.3107C158.191 34.2886 156.803 33.7141 155.356 33.7129H146.607Z" fill="#426572"/>
<path d="M130.735 47.2175H107.892V48.4276H130.735V47.2175Z" fill="#426572"/>
<path d="M120.233 31.8156H119.021V62.7596H120.233V31.8156Z" fill="#426572"/>
<path d="M123.821 64.836H115.072C112.854 64.8333 110.727 63.9524 109.158 62.3861C107.589 60.82 106.706 58.6966 106.704 56.4816V39.1631C106.706 36.9481 107.589 34.8247 109.158 33.2584C110.727 31.6923 112.854 30.8111 115.072 30.8087H123.821C126.04 30.8111 128.167 31.6923 129.736 33.2584C131.305 34.8247 132.187 36.9481 132.19 39.1631V56.4841C132.187 58.6985 131.304 60.8215 129.735 62.387C128.166 63.9526 126.04 64.8333 123.821 64.836ZM115.072 33.7129C113.625 33.7141 112.237 34.2886 111.213 35.3107C110.19 36.3325 109.614 37.718 109.613 39.1631V56.4841C109.614 57.9291 110.19 59.3147 111.213 60.3365C112.237 61.3582 113.625 61.9328 115.072 61.9342H123.821C125.269 61.9328 126.657 61.3582 127.68 60.3365C128.704 59.3147 129.28 57.9291 129.281 56.4841V39.1631C129.28 37.718 128.704 36.3325 127.68 35.3107C126.657 34.2886 125.269 33.7141 123.821 33.7129H115.072Z" fill="#426572"/>
<path d="M126.083 1.45215H112.28V14.1845H126.083V1.45215Z" fill="#DEE6F1"/>
<path d="M127.014 14.2328V14.3296H113.21V1.59961H114.117V14.2328H127.014Z" fill="white"/>
<path d="M124.864 12.6186V1.79333H123.64V12.6186H124.864Z" fill="#A7BCD5"/>
<path d="M127.329 15.6366H110.617V0H127.329V15.6366ZM113.526 12.7324H124.42V2.90418H113.526V12.7324Z" fill="#426572"/>
<path d="M252.357 11.2007H85.9207V19.5188H252.357V11.2007Z" fill="#E8837E"/>
<path d="M252.646 10.9323H86.2092V13.5266H252.646V10.9323Z" fill="#D87673"/>
<path d="M253.576 20.7453H84.2335V9.52551H253.576V20.7453ZM87.1401 17.8411H250.667V12.4297H87.1426L87.1401 17.8411Z" fill="#426572"/>
<path d="M252.359 15.0682H85.7316V16.2783H252.359V15.0682Z" fill="#426572"/>
<path d="M94.5486 15.4937H93.5789V19.3393H94.5486V15.4937Z" fill="#426572"/>
<path d="M97.6832 15.4937H96.7135V19.3393H97.6832V15.4937Z" fill="#426572"/>
<path d="M100.82 15.4937H99.8505V19.3393H100.82V15.4937Z" fill="#426572"/>
<path d="M103.955 15.4937H102.985V19.3393H103.955V15.4937Z" fill="#426572"/>
<path d="M107.089 15.4937H106.12V19.3393H107.089V15.4937Z" fill="#426572"/>
<path d="M109.397 15.4937H108.427V19.3393H109.397V15.4937Z" fill="#426572"/>
<path d="M112.532 15.4937H111.562V19.3393H112.532V15.4937Z" fill="#426572"/>
<path d="M115.669 15.4937H114.699V19.3393H115.669V15.4937Z" fill="#426572"/>
<path d="M118.803 15.4937H117.833V19.3393H118.803V15.4937Z" fill="#426572"/>
<path d="M121.94 15.4937H120.97V19.3393H121.94V15.4937Z" fill="#426572"/>
<path d="M124.246 15.4937H123.276V19.3393H124.246V15.4937Z" fill="#426572"/>
<path d="M127.38 15.4937H126.41V19.3393H127.38V15.4937Z" fill="#426572"/>
<path d="M130.517 15.4937H129.547V19.3393H130.517V15.4937Z" fill="#426572"/>
<path d="M133.652 15.4937H132.682V19.3393H133.652V15.4937Z" fill="#426572"/>
<path d="M136.789 15.4937H135.819V19.3393H136.789V15.4937Z" fill="#426572"/>
<path d="M139.094 15.4937H138.124V19.3393H139.094V15.4937Z" fill="#426572"/>
<path d="M142.229 15.4937H141.259V19.3393H142.229V15.4937Z" fill="#426572"/>
<path d="M145.366 15.4937H144.396V19.3393H145.366V15.4937Z" fill="#426572"/>
<path d="M148.5 15.4937H147.53V19.3393H148.5V15.4937Z" fill="#426572"/>
<path d="M151.637 15.4937H150.667V19.3393H151.637V15.4937Z" fill="#426572"/>
<path d="M153.943 15.4937H152.973V19.3393H153.943V15.4937Z" fill="#426572"/>
<path d="M157.08 15.4937H156.11V19.3393H157.08V15.4937Z" fill="#426572"/>
<path d="M160.214 15.4937H159.244V19.3393H160.214V15.4937Z" fill="#426572"/>
<path d="M163.349 15.4937H162.379V19.3393H163.349V15.4937Z" fill="#426572"/>
<path d="M166.486 15.4937H165.516V19.3393H166.486V15.4937Z" fill="#426572"/>
<path d="M169.53 15.4937H168.561V19.3393H169.53V15.4937Z" fill="#426572"/>
<path d="M172.665 15.4937H171.695V19.3393H172.665V15.4937Z" fill="#426572"/>
<path d="M175.802 15.4937H174.832V19.3393H175.802V15.4937Z" fill="#426572"/>
<path d="M178.936 15.4937H177.967V19.3393H178.936V15.4937Z" fill="#426572"/>
<path d="M182.073 15.4937H181.104V19.3393H182.073V15.4937Z" fill="#426572"/>
<path d="M184.379 15.4937H183.409V19.3393H184.379V15.4937Z" fill="#426572"/>
<path d="M187.516 15.4937H186.546V19.3393H187.516V15.4937Z" fill="#426572"/>
<path d="M190.65 15.4937H189.681V19.3393H190.65V15.4937Z" fill="#426572"/>
<path d="M193.785 15.4937H192.815V19.3393H193.785V15.4937Z" fill="#426572"/>
<path d="M196.922 15.4937H195.952V19.3393H196.922V15.4937Z" fill="#426572"/>
<path d="M199.227 15.4937H198.258V19.3393H199.227V15.4937Z" fill="#426572"/>
<path d="M202.364 15.4937H201.395V19.3393H202.364V15.4937Z" fill="#426572"/>
<path d="M205.499 15.4937H204.529V19.3393H205.499V15.4937Z" fill="#426572"/>
<path d="M208.633 15.4937H207.664V19.3393H208.633V15.4937Z" fill="#426572"/>
<path d="M211.77 15.4937H210.801V19.3393H211.77V15.4937Z" fill="#426572"/>
<path d="M214.076 15.4937H213.106V19.3393H214.076V15.4937Z" fill="#426572"/>
<path d="M217.213 15.4937H216.243V19.3393H217.213V15.4937Z" fill="#426572"/>
<path d="M220.347 15.4937H219.378V19.3393H220.347V15.4937Z" fill="#426572"/>
<path d="M223.482 15.4937H222.512V19.3393H223.482V15.4937Z" fill="#426572"/>
<path d="M226.619 15.4937H225.649V19.3393H226.619V15.4937Z" fill="#426572"/>
<path d="M228.924 15.4937H227.955V19.3393H228.924V15.4937Z" fill="#426572"/>
<path d="M232.061 15.4937H231.092V19.3393H232.061V15.4937Z" fill="#426572"/>
<path d="M235.196 15.4937H234.226V19.3393H235.196V15.4937Z" fill="#426572"/>
<path d="M238.33 15.4937H237.361V19.3393H238.33V15.4937Z" fill="#426572"/>
<path d="M241.467 15.4937H240.498V19.3393H241.467V15.4937Z" fill="#426572"/>
<path d="M244.687 139.267H94.5438V195.79H244.687V139.267Z" fill="#FDE1CE"/>
<path d="M244.418 159.212H93.9159V175.666H244.418V159.212Z" fill="white"/>
<path d="M244.418 149.553H93.9159V150.804H244.418V149.553Z" fill="white"/>
<path d="M244.418 179.336H93.9159V180.587H244.418V179.336Z" fill="white"/>
<path d="M244.418 183.357H93.9159V184.609H244.418V183.357Z" fill="white"/>
<path d="M244.418 153.847H93.9159V155.098H244.418V153.847Z" fill="white"/>
<path d="M243.79 140.162H93.6468V143.025H243.79V140.162Z" fill="#EFC3A6"/>
<path d="M109.193 195.074V151.431H138.934V195.074" fill="#87D6FE"/>
<path d="M126.81 151.073L111.324 194.718H108.73L124.214 151.073H126.81Z" fill="#65AEE2"/>
<path d="M138.078 151.073L122.595 194.718H117.94L133.424 151.073H138.078Z" fill="#65AEE2"/>
<path d="M140.391 195.252H137.482V153.062H110.648V195.252H107.739V150.158H140.391V195.252Z" fill="#426572"/>
<path d="M245.739 196.973H92.6844V137.547H245.739V196.973ZM95.5959 194.069H242.83V140.451H95.5935L95.5959 194.069Z" fill="#426572"/>
<path d="M247.538 134.045H90.3353C88.4795 134.045 86.9753 135.547 86.9753 137.399C86.9753 139.252 88.4795 140.754 90.3353 140.754H247.538C249.393 140.754 250.898 139.252 250.898 137.399C250.898 135.547 249.393 134.045 247.538 134.045Z" fill="#DEE6F1"/>
<path d="M89.4553 134.541H249.15C249.711 134.541 250.249 134.764 250.646 135.16C251.043 135.556 251.266 136.094 251.266 136.654H87.3438C87.3438 136.094 87.5668 135.556 87.9636 135.16C88.3605 134.764 88.8989 134.541 89.4601 134.541H89.4553Z" fill="#A7BCD5"/>
<path d="M248.001 142.332H90.7983C89.5215 142.332 88.2967 141.825 87.3939 140.924C86.4909 140.022 85.9838 138.8 85.9838 137.525C85.9838 136.25 86.4909 135.028 87.3939 134.126C88.2967 133.225 89.5215 132.719 90.7983 132.719H248.001C249.278 132.719 250.502 133.225 251.405 134.126C252.308 135.028 252.815 136.25 252.815 137.525C252.815 138.8 252.308 140.022 251.405 140.924C250.502 141.825 249.278 142.332 248.001 142.332ZM90.7983 135.621C90.2929 135.621 89.8082 135.821 89.4509 136.178C89.0936 136.534 88.8929 137.018 88.8929 137.523C88.8929 138.027 89.0936 138.511 89.4509 138.868C89.8082 139.224 90.2929 139.425 90.7983 139.425H248.001C248.506 139.425 248.991 139.224 249.348 138.868C249.705 138.511 249.906 138.027 249.906 137.523C249.906 137.018 249.705 136.534 249.348 136.178C248.991 135.821 248.506 135.621 248.001 135.621H90.7983Z" fill="#426572"/>
<path d="M247.538 73.9449H90.3353C88.4795 73.9449 86.9753 75.4466 86.9753 77.2993C86.9753 79.1519 88.4795 80.6536 90.3353 80.6536H247.538C249.393 80.6536 250.898 79.1519 250.898 77.2993C250.898 75.4466 249.393 73.9449 247.538 73.9449Z" fill="#DEE6F1"/>
<path d="M89.4553 74.4442H249.15C249.711 74.4442 250.249 74.6666 250.646 75.063C251.043 75.4592 251.266 75.9965 251.266 76.557H87.3438C87.3438 75.9975 87.5661 75.4607 87.9619 75.0647C88.3578 74.6686 88.8948 74.4454 89.4553 74.4442Z" fill="#A7BCD5"/>
<path d="M248.001 82.2315H90.7983C89.5215 82.2315 88.2967 81.7249 87.3939 80.8237C86.4909 79.9222 85.9838 78.6998 85.9838 77.4251C85.9838 76.1501 86.4909 74.9277 87.3939 74.0262C88.2967 73.1249 89.5215 72.6187 90.7983 72.6187H248.001C249.278 72.6187 250.502 73.1249 251.405 74.0262C252.308 74.9277 252.815 76.1501 252.815 77.4251C252.815 78.6998 252.308 79.9222 251.405 80.8237C250.502 81.7249 249.278 82.2315 248.001 82.2315ZM90.7983 75.5204C90.2929 75.5204 89.8082 75.7208 89.4509 76.0775C89.0936 76.4343 88.8929 76.918 88.8929 77.4226C88.8929 77.927 89.0936 78.4108 89.4509 78.7675C89.8082 79.1243 90.2929 79.3249 90.7983 79.3249H248.001C248.506 79.3249 248.991 79.1243 249.348 78.7675C249.705 78.4108 249.906 77.927 249.906 77.4226C249.906 76.918 249.705 76.4343 249.348 76.0775C248.991 75.7208 248.506 75.5204 248.001 75.5204H90.7983Z" fill="#426572"/>
<path d="M138.575 155.478H110.088V156.688H138.575V155.478Z" fill="#426572"/>
<path d="M138.398 159.233H109.911V160.443H138.398V159.233Z" fill="#426572"/>
<path d="M118.309 151.342H117.096V160.194H118.309V151.342Z" fill="#426572"/>
<path d="M131.569 151.342H130.357V160.194H131.569V151.342Z" fill="#426572"/>
<path d="M125.123 160.018H123.184V195.434H125.123V160.018Z" fill="#426572"/>
<path d="M188.815 147.585H154.292V184.611H188.815V147.585Z" fill="#87D6FE"/>
<path d="M174.667 146.889L166.633 183.915H159.95L167.984 146.889H174.667Z" fill="#65AEE2"/>
<path d="M183.477 146.889L175.441 183.915H173.266L181.3 146.889H183.477Z" fill="#65AEE2"/>
<path d="M164.168 146.547H162.956V184.541H164.168V146.547Z" fill="#426572"/>
<path d="M172.798 146.547H171.586V184.541H172.798V146.547Z" fill="#426572"/>
<path d="M181.431 146.547H180.219V184.541H181.431V146.547Z" fill="#426572"/>
<path d="M189.979 156.323H154.406V157.533H189.979V156.323Z" fill="#426572"/>
<path d="M189.979 164.938H154.406V166.148H189.979V164.938Z" fill="#426572"/>
<path d="M189.979 173.556H154.406V174.766H189.979V173.556Z" fill="#426572"/>
<path d="M190.91 185.509H153.477V145.577H190.91V185.509ZM156.386 182.605H188.001V148.481H156.386V182.605Z" fill="#426572"/>
<path d="M232.124 147.585H197.601V184.611H232.124V147.585Z" fill="#87D6FE"/>
<path d="M217.976 146.889L209.943 183.915H203.259L211.293 146.889H217.976Z" fill="#65AEE2"/>
<path d="M226.301 146.889L218.265 183.915H216.09L224.124 146.889H226.301Z" fill="#65AEE2"/>
<path d="M207.477 146.547H206.265V184.541H207.477V146.547Z" fill="#426572"/>
<path d="M216.107 146.547H214.895V184.541H216.107V146.547Z" fill="#426572"/>
<path d="M224.738 146.547H223.526V184.541H224.738V146.547Z" fill="#426572"/>
<path d="M233.288 156.323H197.715V157.533H233.288V156.323Z" fill="#426572"/>
<path d="M233.288 164.938H197.715V166.148H233.288V164.938Z" fill="#426572"/>
<path d="M233.288 173.556H197.715V174.766H233.288V173.556Z" fill="#426572"/>
<path d="M234.219 185.509H196.786V145.577H234.219V185.509ZM199.695 182.605H231.31V148.481H199.695V182.605Z" fill="#426572"/>
<path opacity="0.1" d="M259.695 49.4315C259.316 49.6077 258.902 49.6987 258.483 49.6977H259.695V49.4315Z" fill="#606060"/>
<path opacity="0.2" d="M239.162 113.524C233.531 112.368 227.677 113.037 222.454 115.434C217.231 117.831 212.911 121.831 210.124 126.851C207.337 131.871 206.229 137.648 206.96 143.34C207.692 149.032 210.226 154.343 214.193 158.497C218.159 162.651 223.351 165.432 229.011 166.435C234.672 167.437 240.505 166.609 245.661 164.071C250.817 161.532 255.026 157.416 257.675 152.322C260.323 147.229 261.273 141.424 260.386 135.753C260.745 136.466 261.074 137.2 261.373 137.953C260.986 133.708 259.597 129.615 257.318 126.011C255.038 122.407 251.935 119.394 248.263 117.22C245.481 115.444 242.396 114.191 239.162 113.524Z" fill="#606060"/>
<path d="M236.202 108.365C229.236 108.377 222.561 111.15 217.642 116.073C212.723 120.997 209.963 127.669 209.969 134.622C209.975 141.576 212.747 148.243 217.674 153.158C222.602 158.073 229.282 160.834 236.248 160.834C243.214 160.834 249.894 158.073 254.822 153.158C259.749 148.243 262.521 141.576 262.527 134.622C262.533 127.669 259.773 120.997 254.854 116.073C249.935 111.15 243.26 108.377 236.294 108.365H236.202Z" fill="#87D6FE"/>
<path d="M262.752 134.904C262.744 141.106 260.539 147.105 256.526 151.839C252.513 156.573 246.952 159.737 240.827 160.772C234.702 161.806 228.407 160.643 223.058 157.489C217.709 154.335 213.651 149.394 211.601 143.539C211.737 143.469 211.879 143.408 212.025 143.358C214.709 142.424 217.116 145.105 219.118 147.114C223.344 151.351 229.608 153.607 235.509 152.595C241.409 151.584 246.701 147.15 248.311 141.393C249.766 136.211 248.406 130.214 251.307 125.681C252.151 124.399 253.284 123.333 254.615 122.568C255.946 121.804 257.439 121.362 258.973 121.279C261.465 125.387 262.773 130.102 262.752 134.904Z" fill="#37B5FF"/>
<path d="M236.929 162.648C229.566 162.648 222.504 159.728 217.296 154.53C212.09 149.332 209.164 142.282 209.164 134.93C209.164 127.579 212.09 120.529 217.296 115.331C222.504 110.133 229.566 107.213 236.929 107.213H237.021C244.385 107.225 251.442 110.157 256.64 115.363C261.839 120.57 264.752 127.625 264.74 134.976C264.728 142.328 261.791 149.373 256.576 154.562C251.36 159.752 244.293 162.661 236.929 162.648ZM236.929 110.117C230.358 110.129 224.06 112.744 219.419 117.39C214.779 122.035 212.176 128.33 212.181 134.89C212.187 141.45 214.802 147.74 219.451 152.377C224.1 157.014 230.402 159.618 236.974 159.618C243.546 159.618 249.848 157.014 254.497 152.377C259.146 147.74 261.761 141.45 261.767 134.89C261.773 128.33 259.169 122.035 254.529 117.39C249.889 112.744 243.591 110.129 237.019 110.117H236.929Z" fill="#426572"/>
<path d="M246.997 148.243C239.08 149.364 229.32 146.465 229.32 146.465L224.507 147.421C224.296 147.461 224.079 147.454 223.871 147.399C223.664 147.344 223.471 147.243 223.308 147.103C223.145 146.963 223.016 146.789 222.929 146.593C222.843 146.396 222.802 146.183 222.81 145.968C222.908 142.533 222.82 139.095 222.546 135.668C222.522 135.421 222.563 135.171 222.666 134.944C222.768 134.718 222.929 134.522 223.131 134.377C223.334 134.232 223.57 134.142 223.818 134.117C224.066 134.091 224.316 134.132 224.544 134.233C225.628 134.767 226.816 135.058 228.025 135.085C230.946 135.061 233.496 132.825 234.801 130.17C236.105 127.515 236.401 125.794 236.675 122.842C236.793 121.552 236.983 120.121 237.964 119.294C239.661 117.858 242.454 119.536 243.004 121.702C243.555 123.868 242.675 124.819 241.921 126.932C241.436 128.306 241.543 128.384 241.15 129.799C241.1 129.914 241.075 130.039 241.078 130.164C241.08 130.289 241.11 130.413 241.164 130.526C241.235 130.604 241.32 130.668 241.416 130.712C241.512 130.756 241.616 130.78 241.722 130.782C243.307 130.985 244.347 131.576 245.935 131.75C246.665 131.83 247.358 132.11 247.937 132.561C248.516 133.012 248.958 133.614 249.213 134.301V146.177C249.215 146.46 249.159 146.741 249.047 147.001C248.935 147.262 248.77 147.496 248.563 147.69C248.355 147.884 248.11 148.032 247.842 148.126C247.574 148.22 247.29 148.258 247.007 148.236L246.997 148.243Z" fill="white"/>
</g>
<path opacity="0.1" d="M100.95 3.71739C61.6194 3.63027 37.12 28.3399 37.0351 67.2486C37.0085 79.2719 43.3381 98.0329 54.2812 120.695C59.2218 130.257 65.2121 140.879 71.5782 151.501C79.3357 164.601 87.8206 177.709 96.3054 189.752L100.543 195.424C101.964 193.655 103.384 191.889 104.807 189.771C113.341 177.411 121.869 164.696 129.69 151.627C136.095 141.027 141.784 130.431 146.764 120.891C158.158 98.2773 164.57 79.5454 164.596 67.5221C164.669 29.6758 139.217 3.79968 100.95 3.71739ZM100.73 106.29C77.3333 106.244 58.2521 87.1035 58.303 63.7539C58.3539 40.4043 77.5272 21.3506 100.911 21.4014C124.296 21.4522 143.387 40.5931 143.336 63.9378C143.285 87.2826 124.121 106.341 100.727 106.29H100.73Z" fill="#070707"/>
<path d="M138.378 61.0649C138.327 84.4169 119.151 103.471 95.7672 103.417C75.5151 103.374 58.4799 89.0127 54.3127 69.9928C53.8833 67.5494 53.6707 65.0729 53.6775 62.592C53.7284 39.2497 72.9042 20.1887 96.286 20.2395C116.509 20.283 133.522 34.6078 137.721 53.5745C137.719 53.5849 137.719 53.5956 137.721 53.606C138.161 56.068 138.381 58.5641 138.378 61.0649Z" fill="white"/>
<path d="M96.4121 1.37949C57.0836 1.29478 32.5818 26.002 32.4994 64.9107C32.4727 76.934 38.8024 95.695 49.7454 118.357C54.6836 127.922 60.6836 138.544 67.04 149.171C74.7975 162.271 83.2824 175.378 91.7672 187.421L96 193.091C97.4206 191.322 98.8412 189.556 100.264 187.438C108.798 175.078 117.326 162.363 125.147 149.294C131.551 138.694 137.241 128.098 142.221 118.558C153.615 95.9443 160.027 77.2124 160.053 65.1891C160.133 27.3476 134.679 1.45209 96.4121 1.37949ZM96.1915 103.953C72.8072 103.902 53.7163 84.7656 53.7672 61.4161C53.8181 38.0665 72.9915 19.0127 96.3757 19.0635C119.76 19.1143 138.851 38.2552 138.8 61.6C138.749 84.9447 119.576 104.003 96.1915 103.953Z" fill="#E8837E"/>
<path d="M139.767 124.199C135.404 132.478 130.516 141.382 125.132 150.293C117.314 163.362 108.783 176.075 100.252 188.435C98.8315 190.555 97.4109 192.307 95.9854 194.09L91.7478 188.418C83.263 176.375 74.7951 163.267 67.0206 150.179C60.6594 139.55 54.6569 128.928 49.7236 119.366C38.7878 96.694 32.4606 77.9282 32.4848 65.9074C32.5188 49.8521 36.7127 36.2194 44.3903 25.7329C41.3527 33.6395 39.7406 42.6425 39.7187 52.5675C39.6921 64.5908 46.0218 83.3542 56.9648 106.014C61.9054 115.576 67.903 126.198 74.2618 136.827C82.0194 149.925 90.5042 163.033 98.9891 175.066L103.227 180.739C104.65 178.967 106.07 177.203 107.493 175.083C116.024 162.725 124.555 150.007 132.373 136.941C134.95 132.679 137.413 128.403 139.767 124.199Z" fill="#D66765"/>
<path d="M95.9394 196.175L90.3636 188.709C81.8787 176.661 73.3066 163.396 65.5733 150.347C58.943 139.267 52.9454 128.58 48.2303 119.449L48.2109 119.408C36.6254 95.4095 30.766 77.1785 30.7878 65.223C30.8291 45.6319 36.9624 29.1797 48.526 17.6405C60.0897 6.10119 76.5745 0 96.2012 0H96.4048C106.019 0.0193612 115.006 1.63602 123.118 4.79915C130.885 7.7603 137.932 12.3385 143.79 18.2293C149.647 24.1201 154.182 31.1884 157.091 38.9644C160.191 47.0452 161.753 55.9708 161.731 65.4989C161.704 77.5633 155.476 96.2807 143.719 119.625V119.647C139.287 128.14 133.336 139.318 126.591 150.478C118.23 164.447 109.29 177.639 101.648 188.713C100.218 190.846 98.7709 192.649 97.3697 194.393L95.9394 196.175ZM93.1224 186.736L96.0315 190.628C96.9794 189.418 97.9054 188.208 98.8412 186.806C106.465 175.763 115.367 162.622 123.678 148.737C130.373 137.656 136.284 126.542 140.698 118.096C152.216 95.2255 158.318 77.0357 158.342 65.494C158.381 47.3429 152.524 31.8249 141.396 20.6269C130.23 9.38775 114.667 3.42693 96.3975 3.38821H96.2012C77.4933 3.38821 61.8424 9.14332 50.9284 20.0364C40.0145 30.9295 34.2254 46.554 34.1818 65.2278C34.1575 76.5057 40.0606 94.7246 51.2509 117.914C55.9345 126.98 61.8933 137.595 68.4848 148.614C76.1769 161.588 84.6933 174.771 93.1248 186.741L93.1224 186.736ZM96.2739 105.956H96.1769C87.4322 105.948 78.8872 103.347 71.6244 98.485C64.3619 93.6227 58.7086 86.7173 55.3813 78.6441C52.054 70.571 51.2024 61.6934 52.9343 53.1365C54.6664 44.5796 58.904 36.7286 65.1103 30.5786C69.1956 26.4842 74.0518 23.2369 79.3995 21.0235C84.7469 18.8101 90.4802 17.6744 96.269 17.6816H96.366C105.111 17.6907 113.657 20.2914 120.919 25.154C128.183 30.0168 133.836 36.9227 137.163 44.9963C140.491 53.0702 141.342 61.9483 139.61 70.5054C137.878 79.0628 133.639 86.914 127.433 93.0643C123.347 97.1588 118.491 100.406 113.143 102.62C107.796 104.833 102.063 105.969 96.2739 105.961V105.956ZM96.1842 102.568H96.2739C107.1 102.58 117.488 98.2974 125.151 90.6631C132.815 83.029 137.127 72.6681 137.138 61.8602C137.15 51.0523 132.86 40.6822 125.213 33.0316C117.566 25.3811 107.187 21.0765 96.3612 21.065H96.2715C85.445 21.0534 75.0577 25.3358 67.3941 32.9701C59.7306 40.6043 55.4189 50.9652 55.4072 61.773C55.3956 72.5809 59.6853 82.951 67.3323 90.6016C74.9796 98.2522 85.3578 102.557 96.1842 102.568Z" fill="#426572"/>
<path d="M133.838 22.7491C142.301 30.5929 148.16 40.7309 150.499 52.0451C151.336 56.2063 151.746 60.4413 151.726 64.6855C151.726 66.5539 154.635 66.5563 154.635 64.6855C154.621 51.0649 150.495 37.8872 141.954 27.1926C140.099 24.8787 138.073 22.7067 135.893 20.6944C134.524 19.4238 132.461 21.4737 133.835 22.7491H133.838Z" fill="white"/>
<path d="M118.606 12.5844L118.776 12.6545C118.31 12.4682 119.018 12.7634 119.125 12.8119C119.835 13.1337 120.533 13.4798 121.224 13.838C123.609 15.0936 125.906 16.5086 128.099 18.0733C129.629 19.1551 131.086 16.6381 129.568 15.566C126.4 13.3249 123.006 11.2097 119.387 9.78425C117.646 9.09693 116.89 11.9043 118.613 12.5844H118.606Z" fill="white"/>
<path d="M206.999 139.624H130.497V142.528H206.999V139.624Z" fill="#426572"/>
<path opacity="0.3" d="M206.996 141.925H129.343V144.829H206.996V141.925Z" fill="#426572"/>
</g>
<defs>
<linearGradient id="paint0_linear_6_99" x1="0.319909" y1="106.802" x2="304.145" y2="106.802" gradientUnits="userSpaceOnUse">
<stop stop-color="#C5E9FA"/>
<stop offset="1" stop-color="#C4F4EA"/>
</linearGradient>
<clipPath id="clip0_6_99">
<rect width="312" height="197" fill="white"/>
</clipPath>
</defs>
</svg>
