<svg version="1.1" xmlns="http://www.w3.org/2000/svg" xmlns:xlink="http://www.w3.org/1999/xlink" width="200px" height="200px" viewBox="0,0,256,256"><defs><linearGradient x1="10.395" y1="10.395" x2="37.946" y2="37.946" gradientUnits="userSpaceOnUse" id="color-1"><stop offset="0" stop-color="#75daff"></stop><stop offset="1" stop-color="#1ea2e4"></stop></linearGradient></defs><g fill="none" fill-rule="nonzero" stroke="none" stroke-width="1" stroke-linecap="butt" stroke-linejoin="miter" stroke-miterlimit="10" stroke-dasharray="" stroke-dashoffset="0" font-family="none" font-weight="none" font-size="none" text-anchor="none" style="mix-blend-mode: normal"><g transform="scale(5.33333,5.33333)"><path d="M26.331,4.609l2.49,1.397l2.855,0.035c1.66,0.021 3.19,0.904 4.038,2.331l1.458,2.455l2.455,1.458c1.428,0.848 2.311,2.378 2.331,4.038l0.035,2.855l1.397,2.49c0.812,1.448 0.812,3.215 0,4.663l-1.397,2.49l-0.035,2.855c-0.021,1.66 -0.904,3.19 -2.331,4.038l-2.455,1.458l-1.458,2.455c-0.848,1.428 -2.378,2.311 -4.038,2.331l-2.855,0.035l-2.49,1.397c-1.448,0.812 -3.215,0.812 -4.663,0l-2.49,-1.397l-2.855,-0.035c-1.66,-0.021 -3.19,-0.904 -4.038,-2.331l-1.458,-2.455l-2.455,-1.458c-1.428,-0.848 -2.311,-2.378 -2.331,-4.038l-0.035,-2.855l-1.397,-2.49c-0.812,-1.448 -0.812,-3.215 0,-4.663l1.397,-2.49l0.035,-2.855c0.021,-1.66 0.904,-3.19 2.331,-4.038l2.455,-1.458l1.458,-2.455c0.848,-1.428 2.378,-2.311 4.038,-2.331l2.855,-0.035l2.49,-1.397c1.449,-0.812 3.215,-0.812 4.663,0z" fill="url(#color-1)"></path><path d="M32.172,16.172l-10.172,10.172l-5.172,-5.172c-0.781,-0.781 -2.047,-0.781 -2.828,0l-1.414,1.414c-0.781,0.781 -0.781,2.047 0,2.828l8,8c0.781,0.781 2.047,0.781 2.828,0l13,-13c0.781,-0.781 0.781,-2.047 0,-2.828l-1.414,-1.414c-0.781,-0.781 -2.047,-0.781 -2.828,0z" fill="#000000" opacity="0.05"></path><path d="M20.939,33.061l-8,-8c-0.586,-0.586 -0.586,-1.536 0,-2.121l1.414,-1.414c0.586,-0.586 1.536,-0.586 2.121,0l5.526,5.525l10.525,-10.525c0.586,-0.586 1.536,-0.586 2.121,0l1.414,1.414c0.586,0.586 0.586,1.536 0,2.121l-13,13c-0.585,0.585 -1.535,0.585 -2.121,0z" fill="#000000" opacity="0.07"></path><path d="M21.293,32.707l-8,-8c-0.391,-0.391 -0.391,-1.024 0,-1.414l1.414,-1.414c0.391,-0.391 1.024,-0.391 1.414,0l5.879,5.879l10.879,-10.879c0.391,-0.391 1.024,-0.391 1.414,0l1.414,1.414c0.391,0.391 0.391,1.024 0,1.414l-13,13c-0.39,0.391 -1.024,0.391 -1.414,0z" fill="#ffffff"></path></g></g></svg>