<svg width="18" height="18" viewBox="0 0 18 18" fill="none" xmlns="http://www.w3.org/2000/svg">
<path d="M8.99199 0.666626C4.39199 0.666626 0.666992 4.39996 0.666992 8.99996C0.666992 13.6 4.39199 17.3333 8.99199 17.3333C13.6003 17.3333 17.3337 13.6 17.3337 8.99996C17.3337 4.39996 13.6003 0.666626 8.99199 0.666626ZM9.00033 15.6666C5.31699 15.6666 2.33366 12.6833 2.33366 8.99996C2.33366 5.31663 5.31699 2.33329 9.00033 2.33329C12.6837 2.33329 15.667 5.31663 15.667 8.99996C15.667 12.6833 12.6837 15.6666 9.00033 15.6666ZM9.41699 4.83329H8.16699V9.83329L12.542 12.4583L13.167 11.4333L9.41699 9.20829V4.83329Z" fill="white"/>
</svg>
