<svg width="20" height="18" viewBox="0 0 20 18" fill="none" xmlns="http://www.w3.org/2000/svg">
<path d="M19.1663 9L17.133 6.675L17.4163 3.6L14.408 2.91667L12.833 0.25L9.99967 1.46667L7.16634 0.25L5.59134 2.90833L2.58301 3.58333L2.86634 6.66667L0.833008 9L2.86634 11.325L2.58301 14.4083L5.59134 15.0917L7.16634 17.75L9.99967 16.525L12.833 17.7417L14.408 15.0833L17.4163 14.4L17.133 11.325L19.1663 9ZM7.81634 12.3417L5.83301 10.3417C5.50801 10.0167 5.50801 9.49167 5.83301 9.16667L5.89134 9.10833C6.21634 8.78333 6.74967 8.78333 7.07467 9.10833L8.41634 10.4583L12.708 6.15833C13.033 5.83333 13.5663 5.83333 13.8913 6.15833L13.9497 6.21667C14.2747 6.54167 14.2747 7.06667 13.9497 7.39167L9.01634 12.3417C8.67467 12.6667 8.14967 12.6667 7.81634 12.3417Z" fill="white"/>
</svg>
